<?xml version='1.0' encoding='UTF-8'?>
<svg xmlns="http://www.w3.org/2000/svg" width="1920" height="1024" viewBox="0 0 1920 1024" fill="none">
<defs><style type="text/css"><![CDATA[
@import url('https://fonts.googleapis.com/css2?family=Arimo:ital,wght@0,400;0,700;1,400;1,700&display=swap');

text,
tspan {
    font-family: 'Arimo', Arial, sans-serif !important;
}
]]></style></defs><g clip-path="url(#clip0_355_949)">
<mask id="mask0_355_949" style="mask-type:luminance" maskUnits="userSpaceOnUse" x="0" y="0" width="1920" height="1024">
<path d="M1920 0H0V1024H1920V0Z" fill="white"/>
</mask>
<g mask="url(#mask0_355_949)">
<path d="M1920 0H0V1024H1920V0Z" fill="white"/>
<path d="M41 0H0V1024H41V0Z" fill="url(#paint0_linear_355_949)"/>
<path d="M41 0H0V1024H41V0Z" fill="black" fill-opacity="0.1"/>
<path d="M605.6 40H67V83.4H605.6V40Z" fill="white"/>
<path d="M1920 114H41V171H1920V114Z" fill="#EEEBF2"/>
<path d="M1848 122H1451C1445.48 122 1441 126.477 1441 132V154C1441 159.523 1445.48 164 1451 164H1848C1853.52 164 1858 159.523 1858 154V132C1858 126.477 1853.52 122 1848 122Z" fill="#EEEBF2"/>
<path d="M1526 127H1456C1450.48 127 1446 131.477 1446 137V149C1446 154.523 1450.48 159 1456 159H1526C1531.52 159 1536 154.523 1536 149V137C1536 131.477 1531.52 127 1526 127Z" fill="#EEEBF2"/>
<path d="M1467.45 145.068C1467.45 145.225 1467.39 145.375 1467.28 145.486C1467.17 145.597 1467.02 145.659 1466.86 145.659H1462.14C1461.98 145.659 1461.83 145.597 1461.72 145.486C1461.61 145.375 1461.55 145.225 1461.55 145.068C1461.55 144.911 1461.61 144.761 1461.72 144.65C1461.83 144.539 1461.98 144.477 1462.14 144.477H1466.86C1467.02 144.477 1467.17 144.539 1467.28 144.65C1467.39 144.761 1467.45 144.911 1467.45 145.068ZM1466.86 142.114H1462.14C1461.98 142.114 1461.83 142.176 1461.72 142.287C1461.61 142.397 1461.55 142.548 1461.55 142.704C1461.55 142.861 1461.61 143.012 1461.72 143.122C1461.83 143.233 1461.98 143.295 1462.14 143.295H1466.86C1467.02 143.295 1467.17 143.233 1467.28 143.122C1467.39 143.012 1467.45 142.861 1467.45 142.704C1467.45 142.548 1467.39 142.397 1467.28 142.287C1467.17 142.176 1467.02 142.114 1466.86 142.114ZM1471 137.386V149.795C1471 150.109 1470.88 150.409 1470.65 150.631C1470.43 150.853 1470.13 150.977 1469.82 150.977H1459.18C1458.87 150.977 1458.57 150.853 1458.35 150.631C1458.12 150.409 1458 150.109 1458 149.795V137.386C1458 137.073 1458.12 136.772 1458.35 136.551C1458.57 136.329 1458.87 136.204 1459.18 136.204H1461.86C1462.19 135.833 1462.6 135.535 1463.05 135.332C1463.51 135.128 1464 135.023 1464.5 135.023C1465 135.023 1465.49 135.128 1465.95 135.332C1466.4 135.535 1466.81 135.833 1467.14 136.204H1469.82C1470.13 136.204 1470.43 136.329 1470.65 136.551C1470.88 136.772 1471 137.073 1471 137.386ZM1462.14 138.568H1466.86C1466.86 137.941 1466.61 137.34 1466.17 136.897C1465.73 136.454 1465.13 136.204 1464.5 136.204C1463.87 136.204 1463.27 136.454 1462.83 136.897C1462.39 137.34 1462.14 137.941 1462.14 138.568ZM1469.82 137.386H1467.84C1467.98 137.766 1468.05 138.166 1468.05 138.568V139.159C1468.05 139.316 1467.98 139.466 1467.87 139.577C1467.76 139.688 1467.61 139.75 1467.45 139.75H1461.55C1461.39 139.75 1461.24 139.688 1461.13 139.577C1461.02 139.466 1460.95 139.316 1460.95 139.159V138.568C1460.95 138.166 1461.02 137.766 1461.16 137.386H1459.18V149.795H1469.82V137.386Z" fill="#878682"/>
<text fill="#878682" style="white-space: pre" xml:space="preserve" font-family="Arimo" font-size="14" letter-spacing="0em"><tspan x="1481" y="146.708" font-family="Arimo">Assets</tspan></text>
<path d="M1632 127H1556C1550.48 127 1546 131.477 1546 137V149C1546 154.523 1550.48 159 1556 159H1632C1637.52 159 1642 154.523 1642 149V137C1642 131.477 1637.52 127 1632 127Z" fill="#EEEBF2"/>
<path d="M1574.21 139.325C1573.33 138.443 1572.28 137.744 1571.13 137.269C1569.98 136.793 1568.75 136.55 1567.5 136.554H1567.47C1562.25 136.571 1558 140.879 1558 146.149V148.089C1558 148.449 1558.14 148.794 1558.4 149.049C1558.65 149.303 1559 149.446 1559.36 149.446H1575.64C1576 149.446 1576.35 149.303 1576.6 149.049C1576.86 148.794 1577 148.449 1577 148.089V146.054C1577 144.803 1576.76 143.564 1576.28 142.409C1575.8 141.253 1575.09 140.205 1574.21 139.325ZM1575.64 148.089H1566.8L1571.44 141.702C1571.55 141.557 1571.59 141.375 1571.56 141.197C1571.54 141.019 1571.44 140.86 1571.29 140.754C1571.15 140.648 1570.97 140.604 1570.79 140.632C1570.61 140.66 1570.45 140.758 1570.34 140.903L1565.12 148.089H1559.36V146.149C1559.36 145.888 1559.37 145.63 1559.39 145.375H1561.39C1561.57 145.375 1561.75 145.304 1561.87 145.176C1562 145.049 1562.07 144.876 1562.07 144.696C1562.07 144.516 1562 144.344 1561.87 144.217C1561.75 144.089 1561.57 144.018 1561.39 144.018H1559.63C1560.51 140.722 1563.37 138.23 1566.82 137.94V139.946C1566.82 140.126 1566.89 140.299 1567.02 140.426C1567.15 140.554 1567.32 140.625 1567.5 140.625C1567.68 140.625 1567.85 140.554 1567.98 140.426C1568.11 140.299 1568.18 140.126 1568.18 139.946V137.939C1569.86 138.08 1571.46 138.741 1572.75 139.83C1574.04 140.919 1574.96 142.383 1575.39 144.018H1573.61C1573.43 144.018 1573.25 144.089 1573.13 144.217C1573 144.344 1572.93 144.516 1572.93 144.696C1572.93 144.876 1573 145.049 1573.13 145.176C1573.25 145.304 1573.43 145.375 1573.61 145.375H1575.61C1575.63 145.6 1575.64 145.825 1575.64 146.054V148.089Z" fill="#878682"/>
<text fill="#878682" style="white-space: pre" xml:space="preserve" font-family="Arimo" font-size="14" letter-spacing="0em"><tspan x="1587" y="146.708" font-family="Arimo">Meters</tspan></text>
<path d="M1843 127H1662C1656.48 127 1652 131.477 1652 137V149C1652 154.523 1656.48 159 1662 159H1843C1848.52 159 1853 154.523 1853 149V137C1853 131.477 1848.52 127 1843 127Z" fill="white"/>
<path d="M1678.42 137.231H1664.58C1664.42 137.231 1664.28 137.292 1664.17 137.4C1664.06 137.508 1664 137.655 1664 137.808V147.615C1664 147.921 1664.12 148.215 1664.34 148.431C1664.55 148.648 1664.85 148.769 1665.15 148.769H1677.85C1678.15 148.769 1678.45 148.648 1678.66 148.431C1678.88 148.215 1679 147.921 1679 147.615V137.808C1679 137.655 1678.94 137.508 1678.83 137.4C1678.72 137.292 1678.58 137.231 1678.42 137.231ZM1676.94 138.385L1671.5 143.371L1666.06 138.385H1676.94ZM1677.85 147.615H1665.15V139.119L1671.11 144.579C1671.22 144.677 1671.36 144.731 1671.5 144.731C1671.64 144.731 1671.78 144.677 1671.89 144.579L1677.85 139.119V147.615Z" fill="#0757B8"/>
<text fill="#0757B8" style="white-space: pre" xml:space="preserve" font-family="Arimo" font-size="14" font-weight="bold" letter-spacing="0em"><tspan x="1689" y="146.708" font-family="Arimo">Maintenance Requests</tspan></text>
<path d="M107.962 132.615H83.0385C82.763 132.615 82.4989 132.725 82.3042 132.92C82.1094 133.114 82 133.378 82 133.654V151.308C82 151.859 82.2188 152.387 82.6083 152.776C82.9978 153.166 83.5261 153.385 84.0769 153.385H106.923C107.474 153.385 108.002 153.166 108.392 152.776C108.781 152.387 109 151.859 109 151.308V133.654C109 133.378 108.891 133.114 108.696 132.92C108.501 132.725 108.237 132.615 107.962 132.615ZM105.291 134.692L95.5 143.669L85.7086 134.692H105.291ZM106.923 151.308H84.0769V136.015L94.7977 145.843C94.9893 146.019 95.2399 146.116 95.5 146.116C95.7601 146.116 96.0107 146.019 96.2023 145.843L106.923 136.015V151.308Z" fill="#303976"/>
<text fill="#303976" style="white-space: pre" xml:space="preserve" font-family="Arimo" font-size="24" font-weight="bold" letter-spacing="0em"><tspan x="121" y="149.64" font-family="Arimo">Maintenance Requests</tspan></text>
<path d="M1864.5 131C1864.5 126.858 1861.14 123.5 1857 123.5C1852.86 123.5 1849.5 126.858 1849.5 131C1849.5 135.142 1852.86 138.5 1857 138.5C1861.14 138.5 1864.5 135.142 1864.5 131Z" fill="#FF0000"/>
<text fill="white" style="white-space: pre" xml:space="preserve" font-family="Arimo" font-size="12" font-weight="bold" letter-spacing="0em"><tspan x="1853.66" y="134.32" font-family="Arimo">1</tspan></text>
<path d="M1842 180H1654C1651.24 180 1649 182.239 1649 185V205C1649 207.761 1651.24 210 1654 210H1842C1844.76 210 1847 207.761 1847 205V185C1847 182.239 1844.76 180 1842 180Z" fill="#2DB55D"/>
<text fill="white" style="white-space: pre" xml:space="preserve" font-family="Arimo" font-size="14" font-weight="bold" letter-spacing="0em"><tspan x="1666" y="198.708" font-family="Arimo">Request status updated!</tspan></text>
<path d="M816 185.5H92C86.7533 185.5 82.5 189.753 82.5 195V322C82.5 327.247 86.7533 331.5 92 331.5H816C821.247 331.5 825.5 327.247 825.5 322V195C825.5 189.753 821.247 185.5 816 185.5Z" fill="#FAFAFA"/>
<path d="M816 185.5H92C86.7533 185.5 82.5 189.753 82.5 195V322C82.5 327.247 86.7533 331.5 92 331.5H816C821.247 331.5 825.5 327.247 825.5 322V195C825.5 189.753 821.247 185.5 816 185.5Z" stroke="#DFDFDF"/>
<text fill="#878682" style="white-space: pre" xml:space="preserve" font-family="Arimo" font-size="14" font-weight="bold" letter-spacing="0em"><tspan x="92" y="206.708" font-family="Arimo">WORKFLOW STATUSES</tspan></text>
<path d="M92 226C92 220.477 96.4772 216 102 216H320C325.523 216 330 220.477 330 226V312C330 317.523 325.523 322 320 322H102C96.4772 322 92 317.523 92 312V226Z" fill="#F3F6F9"/>
<mask id="mask1_355_949" style="mask-type:luminance" maskUnits="userSpaceOnUse" x="92" y="216" width="238" height="106">
<path d="M92 226C92 220.477 96.4772 216 102 216H320C325.523 216 330 220.477 330 226V312C330 317.523 325.523 322 320 322H102C96.4772 322 92 317.523 92 312V226Z" fill="white"/>
</mask>
<g mask="url(#mask1_355_949)">
<path d="M91 226C91 219.925 95.9249 215 102 215H325C331.075 215 336 219.925 336 226H324C324 221.029 322.209 217 320 217H102C97.0294 217 93 221.029 93 226H91ZM336 312C336 318.075 331.075 323 325 323H102C95.9249 323 91 318.075 91 312H93C93 316.971 97.0294 321 102 321H320C322.209 321 324 316.971 324 312H336ZM102 323C95.9249 323 91 318.075 91 312V226C91 219.925 95.9249 215 102 215V217C97.0294 217 93 221.029 93 226V312C93 316.971 97.0294 321 102 321V323ZM325 215C331.075 215 336 219.925 336 226V312C336 318.075 331.075 323 325 323L320 321C322.209 321 324 316.971 324 312V226C324 221.029 322.209 217 320 217L325 215Z" fill="#B8C2CC"/>
</g>
<text fill="#878682" style="white-space: pre" xml:space="preserve" font-family="Arimo" font-size="14" font-weight="bold" letter-spacing="0em"><tspan x="106" y="252.708" font-family="Arimo">ACTIVE INBOX</tspan></text>
<text fill="#282828" style="white-space: pre" xml:space="preserve" font-family="Arimo" font-size="24" font-weight="bold" letter-spacing="0em"><tspan x="106" y="289.64" font-family="Arimo">2</tspan></text>
<path d="M563 216.5H345C339.753 216.5 335.5 220.753 335.5 226V312C335.5 317.247 339.753 321.5 345 321.5H563C568.247 321.5 572.5 317.247 572.5 312V226C572.5 220.753 568.247 216.5 563 216.5Z" fill="#F3F6F9"/>
<path d="M563 216.5H345C339.753 216.5 335.5 220.753 335.5 226V312C335.5 317.247 339.753 321.5 345 321.5H563C568.247 321.5 572.5 317.247 572.5 312V226C572.5 220.753 568.247 216.5 563 216.5Z" stroke="#D9E1EA"/>
<text fill="#878682" style="white-space: pre" xml:space="preserve" font-family="Arimo" font-size="14" font-weight="bold" letter-spacing="0em"><tspan x="349" y="252.708" font-family="Arimo">PENDING</tspan></text>
<text fill="#FE865A" style="white-space: pre" xml:space="preserve" font-family="Arimo" font-size="24" font-weight="bold" letter-spacing="0em"><tspan x="349" y="289.64" font-family="Arimo">1</tspan></text>
<path d="M806 216.5H588C582.753 216.5 578.5 220.753 578.5 226V312C578.5 317.247 582.753 321.5 588 321.5H806C811.247 321.5 815.5 317.247 815.5 312V226C815.5 220.753 811.247 216.5 806 216.5Z" fill="#F3F6F9"/>
<path d="M806 216.5H588C582.753 216.5 578.5 220.753 578.5 226V312C578.5 317.247 582.753 321.5 588 321.5H806C811.247 321.5 815.5 317.247 815.5 312V226C815.5 220.753 811.247 216.5 806 216.5Z" stroke="#D9E1EA"/>
<text fill="#878682" style="white-space: pre" xml:space="preserve" font-family="Arimo" font-size="14" font-weight="bold" letter-spacing="0em"><tspan x="592" y="256.208" font-family="Arimo">RESOLVED</tspan></text>
<text fill="#878682" style="white-space: pre" xml:space="preserve" font-family="Arimo" font-size="24" font-weight="bold" letter-spacing="0em"><tspan x="592" y="286.14" font-family="Arimo">0</tspan></text>
<path d="M1360 185.5H845C839.753 185.5 835.5 189.753 835.5 195V322C835.5 327.247 839.753 331.5 845 331.5H1360C1365.25 331.5 1369.5 327.247 1369.5 322V195C1369.5 189.753 1365.25 185.5 1360 185.5Z" fill="#FAFAFA"/>
<path d="M1360 185.5H845C839.753 185.5 835.5 189.753 835.5 195V322C835.5 327.247 839.753 331.5 845 331.5H1360C1365.25 331.5 1369.5 327.247 1369.5 322V195C1369.5 189.753 1365.25 185.5 1360 185.5Z" stroke="#DFDFDF"/>
<text fill="#878682" style="white-space: pre" xml:space="preserve" font-family="Arimo" font-size="14" font-weight="bold" letter-spacing="0em"><tspan x="845" y="206.708" font-family="Arimo">SEVERITY</tspan></text>
<path d="M855 217H1107C1111.97 217 1116 221.029 1116 226V312C1116 316.971 1111.97 321 1107 321H855C850.029 321 846 316.971 846 312V226C846 221.029 850.029 217 855 217Z" fill="#FFEBEC" stroke="#FFC4C4"/>
<path d="M871.814 246.525L866.739 238.172C866.612 237.967 866.431 237.798 866.214 237.68C865.997 237.562 865.751 237.5 865.5 237.5C865.25 237.5 865.004 237.562 864.786 237.68C864.569 237.798 864.388 237.967 864.261 238.172L859.186 246.525C859.064 246.723 859 246.948 859 247.177C859 247.406 859.064 247.632 859.186 247.829C859.312 248.035 859.492 248.206 859.71 248.324C859.928 248.442 860.175 248.502 860.425 248.5H870.575C870.826 248.502 871.072 248.441 871.29 248.324C871.507 248.206 871.688 248.035 871.813 247.829C871.935 247.632 872 247.407 872 247.177C872 246.948 871.936 246.723 871.814 246.525ZM871.009 247.389C870.965 247.46 870.902 247.52 870.825 247.56C870.749 247.601 870.663 247.621 870.575 247.62H860.425C860.338 247.621 860.252 247.601 860.175 247.56C860.099 247.52 860.035 247.46 859.991 247.389C859.951 247.325 859.93 247.251 859.93 247.177C859.93 247.102 859.951 247.029 859.991 246.964L865.066 238.612C865.111 238.54 865.175 238.481 865.251 238.441C865.328 238.4 865.414 238.378 865.501 238.378C865.589 238.378 865.675 238.4 865.751 238.441C865.828 238.481 865.892 238.54 865.937 238.612L871.012 246.964C871.051 247.029 871.072 247.102 871.072 247.177C871.071 247.252 871.05 247.325 871.009 247.389ZM865.036 244.1V241.9C865.036 241.783 865.085 241.671 865.172 241.589C865.259 241.506 865.377 241.46 865.5 241.46C865.623 241.46 865.742 241.506 865.829 241.589C865.916 241.671 865.965 241.783 865.965 241.9V244.1C865.965 244.217 865.916 244.329 865.829 244.411C865.742 244.494 865.623 244.54 865.5 244.54C865.377 244.54 865.259 244.494 865.172 244.411C865.085 244.329 865.036 244.217 865.036 244.1ZM866.197 246.08C866.197 246.21 866.156 246.338 866.079 246.447C866.003 246.555 865.894 246.64 865.767 246.69C865.64 246.74 865.5 246.753 865.364 246.727C865.229 246.702 865.105 246.639 865.008 246.547C864.91 246.454 864.844 246.337 864.817 246.209C864.79 246.081 864.804 245.948 864.857 245.827C864.91 245.707 864.999 245.604 865.113 245.531C865.228 245.459 865.363 245.42 865.5 245.42C865.685 245.42 865.862 245.489 865.993 245.613C866.123 245.737 866.197 245.905 866.197 246.08Z" fill="#D95C5C"/>
<text fill="#D95C5C" style="white-space: pre" xml:space="preserve" font-family="Arimo" font-size="14" font-weight="bold" letter-spacing="0em"><tspan x="877" y="246.708" font-family="Arimo">LINE STOPPAGE</tspan></text>
<text fill="#D95C5C" style="white-space: pre" xml:space="preserve" font-family="Arimo" font-size="24" font-weight="bold" letter-spacing="0em"><tspan x="859" y="276.64" font-family="Arimo">1</tspan></text>
<text fill="#878682" style="white-space: pre" xml:space="preserve" font-family="Arimo" font-size="12" letter-spacing="0em"><tspan x="859" y="299.32" font-family="Arimo">Require immediate action</tspan></text>
<path d="M1350 216.5H1132C1126.75 216.5 1122.5 220.753 1122.5 226V312C1122.5 317.247 1126.75 321.5 1132 321.5H1350C1355.25 321.5 1359.5 317.247 1359.5 312V226C1359.5 220.753 1355.25 216.5 1350 216.5Z" fill="#FFF3D8"/>
<path d="M1350 216.5H1132C1126.75 216.5 1122.5 220.753 1122.5 226V312C1122.5 317.247 1126.75 321.5 1132 321.5H1350C1355.25 321.5 1359.5 317.247 1359.5 312V226C1359.5 220.753 1355.25 216.5 1350 216.5Z" stroke="#FFD070"/>
<text fill="#D98A1F" style="white-space: pre" xml:space="preserve" font-family="Arimo" font-size="14" font-weight="bold" letter-spacing="0em"><tspan x="1136" y="256.208" font-family="Arimo">PARTIAL BREAKDOWN</tspan></text>
<text fill="#D98A1F" style="white-space: pre" xml:space="preserve" font-family="Arimo" font-size="24" font-weight="bold" letter-spacing="0em"><tspan x="1136" y="286.14" font-family="Arimo">5</tspan></text>
<path d="M332 357H90C85.5817 357 82 360.582 82 365V387C82 391.418 85.5817 395 90 395H332C336.418 395 340 391.418 340 387V365C340 360.582 336.418 357 332 357Z" fill="#F0F0F0"/>
<path d="M202 359H92C87.5817 359 84 362.582 84 367V385C84 389.418 87.5817 393 92 393H202C206.418 393 210 389.418 210 385V367C210 362.582 206.418 359 202 359Z" fill="#0757B8"/>
<text fill="white" style="white-space: pre" xml:space="preserve" font-family="Arimo" font-size="16" font-weight="bold" letter-spacing="0em"><tspan x="118" y="380.094" font-family="Arimo">ACTIVE</tspan></text>
<path d="M330 359H220C215.582 359 212 362.582 212 367V385C212 389.418 215.582 393 220 393H330C334.418 393 338 389.418 338 385V367C338 362.582 334.418 359 330 359Z" fill="#F0F0F0"/>
<path d="M330 359H220C215.582 359 212 362.582 212 367V385C212 389.418 215.582 393 220 393H330C334.418 393 338 389.418 338 385V367C338 362.582 334.418 359 330 359Z" fill="#F0F0F0"/>
<text fill="#AEAEAE" style="white-space: pre" xml:space="preserve" font-family="Arimo" font-size="16" font-weight="bold" letter-spacing="0em"><tspan x="242" y="380.094" font-family="Arimo">CLOSED</tspan></text>
<path d="M589 360H373C368.582 360 365 363.582 365 368V384C365 388.418 368.582 392 373 392H589C593.418 392 597 388.418 597 384V368C597 363.582 593.418 360 589 360Z" fill="#F8FAFC"/>
<path d="M386.912 370.595C386.835 370.417 386.708 370.266 386.545 370.16C386.383 370.054 386.193 369.998 385.999 369.999H374.998C374.805 370 374.615 370.056 374.453 370.162C374.291 370.268 374.163 370.418 374.085 370.595C374.007 370.773 373.982 370.969 374.013 371.16C374.044 371.351 374.13 371.529 374.26 371.672L374.265 371.677L378.499 376.198V381C378.499 381.181 378.548 381.359 378.641 381.514C378.734 381.67 378.867 381.797 379.026 381.882C379.186 381.968 379.366 382.008 379.547 382C379.727 381.991 379.902 381.933 380.053 381.833L382.053 380.499C382.19 380.408 382.303 380.284 382.381 380.139C382.458 379.994 382.499 379.831 382.499 379.667V376.198L386.733 371.677L386.738 371.672C386.87 371.529 386.956 371.351 386.987 371.16C387.018 370.968 386.992 370.772 386.912 370.595ZM381.635 375.661C381.549 375.753 381.5 375.874 381.499 376V379.667L379.499 381V376C379.499 375.873 379.45 375.751 379.364 375.658L374.998 370.999H385.999L381.635 375.661Z" fill="black"/>
<text fill="#878682" style="white-space: pre" xml:space="preserve" font-family="Arimo" font-size="14" font-weight="bold" letter-spacing="0em"><tspan x="395" y="379.708" font-family="Arimo">All Types</tspan></text>
<path d="M580.5 381.795L586.995 373.102H574.005L580.5 381.795Z" fill="#D4D4D4"/>
<text fill="#878682" style="white-space: pre" xml:space="preserve" font-family="Arimo" font-size="12" font-weight="bold" letter-spacing="0em"><tspan x="622" y="379.32" font-family="Arimo">REQUEST TYPE</tspan></text>
<path d="M992 362H736C733.239 362 731 364.239 731 367V385C731 387.761 733.239 390 736 390H992C994.761 390 997 387.761 997 385V367C997 364.239 994.761 362 992 362Z" fill="#F3F6F9"/>
<path d="M814 367H744C741.239 367 739 369.239 739 372V380C739 382.761 741.239 385 744 385H814C816.761 385 819 382.761 819 380V372C819 369.239 816.761 367 814 367Z" fill="white"/>
<text fill="#878682" style="white-space: pre" xml:space="preserve" font-family="Arimo" font-size="12" font-weight="bold" letter-spacing="0em"><tspan x="771.324" y="379.32" font-family="Arimo">All</tspan></text>
<path d="M899 367H829C826.239 367 824 369.239 824 372V380C824 382.761 826.239 385 829 385H899C901.761 385 904 382.761 904 380V372C904 369.239 901.761 367 899 367Z" fill="#F3F6F9"/>
<text fill="#878682" style="white-space: pre" xml:space="preserve" font-family="Arimo" font-size="12" font-weight="bold" letter-spacing="0em"><tspan x="843.305" y="379.32" font-family="Arimo">Facility</tspan></text>
<path d="M984 367H914C911.239 367 909 369.239 909 372V380C909 382.761 911.239 385 914 385H984C986.761 385 989 382.761 989 380V372C989 369.239 986.761 367 984 367Z" fill="#F3F6F9"/>
<text fill="#878682" style="white-space: pre" xml:space="preserve" font-family="Arimo" font-size="12" font-weight="bold" letter-spacing="0em"><tspan x="917.98" y="379.32" font-family="Arimo">Equipment</tspan></text>
<mask id="mask2_355_949" style="mask-type:luminance" maskUnits="userSpaceOnUse" x="82" y="453" width="1776" height="505">
<path d="M1858 453H82V958H1858V453Z" fill="white"/>
</mask>
<g mask="url(#mask2_355_949)">
<path d="M1858 453H82V483H1858V453Z" fill="#EFF6FF"/>
<text fill="#878682" style="white-space: pre" xml:space="preserve" font-family="Arimo" font-size="12" font-weight="bold" letter-spacing="0em"><tspan x="439" y="471.32" font-family="Arimo">Location</tspan></text>
<text fill="#878682" style="white-space: pre" xml:space="preserve" font-family="Arimo" font-size="12" font-weight="bold" letter-spacing="0em"><tspan x="212" y="471.32" font-family="Arimo">REQ-ID</tspan></text>
<text fill="#878682" style="white-space: pre" xml:space="preserve" font-family="Arimo" font-size="12" font-weight="bold" letter-spacing="0em"><tspan x="1108" y="471.32" font-family="Arimo">Type</tspan></text>
<text fill="#878682" style="white-space: pre" xml:space="preserve" font-family="Arimo" font-size="12" font-weight="bold" letter-spacing="0em"><tspan x="971" y="471.32" font-family="Arimo">Severity</tspan></text>
<text fill="#878682" style="white-space: pre" xml:space="preserve" font-family="Arimo" font-size="12" font-weight="bold" letter-spacing="0em"><tspan x="1222" y="471.32" font-family="Arimo">Requestor</tspan></text>
<text fill="#878682" style="white-space: pre" xml:space="preserve" font-family="Arimo" font-size="12" font-weight="bold" letter-spacing="0em"><tspan x="1438" y="471.32" font-family="Arimo">Contact no.</tspan></text>
<text fill="#878682" style="white-space: pre" xml:space="preserve" font-family="Arimo" font-size="12" font-weight="bold" letter-spacing="0em"><tspan x="1546" y="471.32" font-family="Arimo">Request date</tspan></text>
<text fill="#878682" style="white-space: pre" xml:space="preserve" font-family="Arimo" font-size="12" font-weight="bold" letter-spacing="0em"><tspan x="325" y="471.32" font-family="Arimo">Status</tspan></text>
<text fill="#878682" style="white-space: pre" xml:space="preserve" font-family="Arimo" font-size="12" font-weight="bold" letter-spacing="0em"><tspan x="629" y="471.32" font-family="Arimo">Issue Description</tspan></text>
<text fill="#878682" style="white-space: pre" xml:space="preserve" font-family="Arimo" font-size="12" font-weight="bold" letter-spacing="0em"><tspan x="151" y="471.32" font-family="Arimo">Action</tspan></text>
<path d="M111 457.5H121C124.038 457.5 126.5 459.962 126.5 463V473C126.5 476.038 124.038 478.5 121 478.5H111C107.962 478.5 105.5 476.038 105.5 473V463C105.5 459.962 107.962 457.5 111 457.5Z" fill="#F5F5F5" stroke="#D9E1EA"/>
<path d="M82 483H1858V544H82V483Z" fill="white"/>
<mask id="mask3_355_949" style="mask-type:luminance" maskUnits="userSpaceOnUse" x="82" y="483" width="1776" height="61">
<path d="M82 483H1858V544H82V483Z" fill="white"/>
</mask>
<g mask="url(#mask3_355_949)">
<path d="M1858 544V543H82V544V545H1858V544Z" fill="#D9E1EA"/>
</g>
<text fill="#282828" style="white-space: pre" xml:space="preserve" font-family="Arimo" font-size="14" letter-spacing="0em"><tspan x="1222" y="507.708" font-family="Arimo">Jun Wei Tan</tspan></text>
<text fill="#878682" style="white-space: pre" xml:space="preserve" font-family="Arimo" font-size="14" letter-spacing="0em"><tspan x="1222" y="527.708" font-family="Arimo">ID: 6824517</tspan></text>
<text fill="#0757B8" style="white-space: pre" xml:space="preserve" font-family="Arimo" font-size="14" font-weight="bold" letter-spacing="0em"><tspan x="649" y="509.208" font-family="Arimo">Service Bay 2 - Temperature Sensor </tspan></text>
<text fill="#0757B8" style="white-space: pre" xml:space="preserve" font-family="Arimo" font-size="14" font-weight="bold" letter-spacing="0em"><tspan x="649" y="525.208" font-family="Arimo">Calibration Drift</tspan></text>
<path d="M1150 502.75H1118C1112.75 502.75 1108.5 507.003 1108.5 512.25V514.25C1108.5 519.497 1112.75 523.75 1118 523.75H1150C1155.25 523.75 1159.5 519.497 1159.5 514.25V512.25C1159.5 507.003 1155.25 502.75 1150 502.75Z" fill="#F9E0E0"/>
<path d="M1150 502.75H1118C1112.75 502.75 1108.5 507.003 1108.5 512.25V514.25C1108.5 519.497 1112.75 523.75 1118 523.75H1150C1155.25 523.75 1159.5 519.497 1159.5 514.25V512.25C1159.5 507.003 1155.25 502.75 1150 502.75Z" stroke="#D7E6F7"/>
<text fill="#832929" style="white-space: pre" xml:space="preserve" font-family="Arimo" font-size="12" font-weight="bold" letter-spacing="0em"><tspan x="1113" y="516.57" font-family="Arimo">Facility</tspan></text>
<path d="M1072 502.75H981C975.753 502.75 971.5 507.003 971.5 512.25V514.25C971.5 519.497 975.753 523.75 981 523.75H1072C1077.25 523.75 1081.5 519.497 1081.5 514.25V512.25C1081.5 507.003 1077.25 502.75 1072 502.75Z" fill="#F9E0E0"/>
<path d="M1072 502.75H981C975.753 502.75 971.5 507.003 971.5 512.25V514.25C971.5 519.497 975.753 523.75 981 523.75H1072C1077.25 523.75 1081.5 519.497 1081.5 514.25V512.25C1081.5 507.003 1077.25 502.75 1072 502.75Z" stroke="#D7E6F7"/>
<path d="M988.814 516.775L983.739 508.422C983.612 508.217 983.431 508.048 983.214 507.93C982.997 507.812 982.751 507.75 982.5 507.75C982.25 507.75 982.004 507.812 981.786 507.93C981.569 508.048 981.388 508.217 981.261 508.422L976.186 516.775C976.064 516.973 976 517.198 976 517.427C976 517.656 976.064 517.882 976.186 518.079C976.312 518.285 976.492 518.456 976.71 518.574C976.928 518.692 977.175 518.752 977.425 518.75H987.575C987.826 518.752 988.072 518.691 988.29 518.574C988.507 518.456 988.688 518.285 988.813 518.079C988.935 517.882 989 517.657 989 517.427C989 517.198 988.936 516.973 988.814 516.775ZM988.009 517.639C987.965 517.71 987.902 517.77 987.825 517.81C987.749 517.851 987.663 517.871 987.575 517.87H977.425C977.338 517.871 977.252 517.851 977.175 517.81C977.099 517.77 977.035 517.71 976.991 517.639C976.951 517.575 976.93 517.501 976.93 517.427C976.93 517.352 976.951 517.279 976.991 517.214L982.066 508.862C982.111 508.79 982.175 508.731 982.251 508.691C982.328 508.65 982.414 508.628 982.501 508.628C982.589 508.628 982.675 508.65 982.751 508.691C982.828 508.731 982.892 508.79 982.937 508.862L988.012 517.214C988.051 517.279 988.072 517.352 988.072 517.427C988.071 517.502 988.05 517.575 988.009 517.639ZM982.036 514.35V512.15C982.036 512.033 982.085 511.921 982.172 511.839C982.259 511.756 982.377 511.71 982.5 511.71C982.623 511.71 982.742 511.756 982.829 511.839C982.916 511.921 982.965 512.033 982.965 512.15V514.35C982.965 514.467 982.916 514.579 982.829 514.661C982.742 514.744 982.623 514.79 982.5 514.79C982.377 514.79 982.259 514.744 982.172 514.661C982.085 514.579 982.036 514.467 982.036 514.35ZM983.197 516.33C983.197 516.46 983.156 516.588 983.079 516.697C983.003 516.805 982.894 516.89 982.767 516.94C982.64 516.99 982.5 517.003 982.364 516.977C982.229 516.952 982.105 516.889 982.008 516.797C981.91 516.704 981.844 516.587 981.817 516.459C981.79 516.331 981.804 516.198 981.857 516.077C981.91 515.957 981.999 515.854 982.113 515.781C982.228 515.709 982.363 515.67 982.5 515.67C982.685 515.67 982.862 515.739 982.993 515.863C983.123 515.987 983.197 516.155 983.197 516.33Z" fill="#D95C5C"/>
<text fill="#832929" style="white-space: pre" xml:space="preserve" font-family="Arimo" font-size="12" font-weight="bold" letter-spacing="0em"><tspan x="994" y="516.57" font-family="Arimo">Line Stoppage</tspan></text>
<path d="M388 502.75H338C332.753 502.75 328.5 507.003 328.5 512.25V514.25C328.5 519.497 332.753 523.75 338 523.75H388C393.247 523.75 397.5 519.497 397.5 514.25V512.25C397.5 507.003 393.247 502.75 388 502.75Z" fill="#F3F6F9"/>
<path d="M388 502.75H338C332.753 502.75 328.5 507.003 328.5 512.25V514.25C328.5 519.497 332.753 523.75 338 523.75H388C393.247 523.75 397.5 519.497 397.5 514.25V512.25C397.5 507.003 393.247 502.75 388 502.75Z" stroke="#B8C2CC"/>
<path d="M336.5 516.75C338.433 516.75 340 515.183 340 513.25C340 511.317 338.433 509.75 336.5 509.75C334.567 509.75 333 511.317 333 513.25C333 515.183 334.567 516.75 336.5 516.75Z" fill="#878682"/>
<text fill="#878682" style="white-space: pre" xml:space="preserve" font-family="Arimo" font-size="12" font-weight="bold" letter-spacing="0em"><tspan x="345" y="516.57" font-family="Arimo">Pending</tspan></text>
<text fill="#282828" style="white-space: pre" xml:space="preserve" font-family="Arimo" font-size="14" letter-spacing="0em"><tspan x="1438" y="516.958" font-family="Arimo">81234567</tspan></text>
<text fill="#282828" style="white-space: pre" xml:space="preserve" font-family="Arimo" font-size="14" letter-spacing="0em"><tspan x="1546" y="516.958" font-family="Arimo">2019-04-18</tspan></text>
<text fill="#0757B8" style="white-space: pre" xml:space="preserve" font-family="Arimo" font-size="14" font-weight="bold" letter-spacing="0em"><tspan x="439.056" y="516.958" font-family="Arimo">Utility Building (505)</tspan></text>
<text fill="#0757B8" style="white-space: pre" xml:space="preserve" font-family="Arimo" font-size="14" letter-spacing="0em"><tspan x="212" y="516.958" font-family="Arimo">REQ-57184</tspan></text>
<path d="M175.301 521.855L170.607 517.162C171.968 515.528 172.646 513.433 172.501 511.312C172.357 509.192 171.4 507.208 169.83 505.775C168.26 504.342 166.198 503.569 164.073 503.617C161.947 503.665 159.923 504.531 158.419 506.034C156.916 507.537 156.05 509.562 156.002 511.687C155.954 513.813 156.727 515.875 158.16 517.445C159.593 519.015 161.577 519.971 163.698 520.116C165.819 520.261 167.914 519.583 169.547 518.222L174.24 522.916C174.31 522.986 174.393 523.041 174.484 523.079C174.575 523.117 174.672 523.136 174.771 523.136C174.869 523.136 174.967 523.117 175.058 523.079C175.149 523.041 175.232 522.986 175.301 522.916C175.371 522.846 175.426 522.764 175.464 522.673C175.502 522.582 175.521 522.484 175.521 522.385C175.521 522.287 175.502 522.189 175.464 522.098C175.426 522.007 175.371 521.925 175.301 521.855ZM157.521 511.885C157.521 510.55 157.917 509.245 158.658 508.135C159.4 507.025 160.454 506.16 161.688 505.649C162.921 505.138 164.278 505.005 165.588 505.265C166.897 505.526 168.1 506.169 169.044 507.113C169.988 508.057 170.631 509.259 170.891 510.569C171.151 511.878 171.018 513.235 170.507 514.469C169.996 515.702 169.131 516.756 168.021 517.498C166.911 518.24 165.606 518.635 164.271 518.635C162.481 518.634 160.765 517.922 159.5 516.656C158.235 515.391 157.523 513.675 157.521 511.885Z" fill="#878682"/>
<path d="M111 503.5H121C124.038 503.5 126.5 505.962 126.5 509V519C126.5 522.038 124.038 524.5 121 524.5H111C107.962 524.5 105.5 522.038 105.5 519V509C105.5 505.962 107.962 503.5 111 503.5Z" fill="#F5F5F5" stroke="#D9E1EA"/>
<path d="M634 517C636.761 517 639 514.761 639 512C639 509.239 636.761 507 634 507C631.239 507 629 509.239 629 512C629 514.761 631.239 517 634 517Z" fill="#FF0000"/>
<path d="M82 544H1858V647H82V544Z" fill="#EFF6FF"/>
<mask id="mask4_355_949" style="mask-type:luminance" maskUnits="userSpaceOnUse" x="82" y="544" width="1776" height="103">
<path d="M82 544H1858V647H82V544Z" fill="white"/>
</mask>
<g mask="url(#mask4_355_949)">
<path d="M1858 647V646H82V647V648H1858V647Z" fill="#D9E1EA"/>
</g>
<text fill="#282828" style="white-space: pre" xml:space="preserve" font-family="Arimo" font-size="14" letter-spacing="0em"><tspan x="1222" y="589.708" font-family="Arimo">Arun Kumar</tspan></text>
<text fill="#878682" style="white-space: pre" xml:space="preserve" font-family="Arimo" font-size="14" letter-spacing="0em"><tspan x="1222" y="609.708" font-family="Arimo">ID: 7412096</tspan></text>
<text fill="#282828" style="white-space: pre" xml:space="preserve" font-family="Arimo" font-size="14" letter-spacing="0em"><tspan x="629" y="591.708" font-family="Arimo">Surface Treatment Unit - Pressure Valve </tspan></text>
<text fill="#282828" style="white-space: pre" xml:space="preserve" font-family="Arimo" font-size="14" letter-spacing="0em"><tspan x="629" y="607.708" font-family="Arimo">Pressure Leak</tspan></text>
<path d="M1171 586.5H1118C1112.75 586.5 1108.5 590.753 1108.5 596V598C1108.5 603.247 1112.75 607.5 1118 607.5H1171C1176.25 607.5 1180.5 603.247 1180.5 598V596C1180.5 590.753 1176.25 586.5 1171 586.5Z" fill="#EBF9E0"/>
<path d="M1171 586.5H1118C1112.75 586.5 1108.5 590.753 1108.5 596V598C1108.5 603.247 1112.75 607.5 1118 607.5H1171C1176.25 607.5 1180.5 603.247 1180.5 598V596C1180.5 590.753 1176.25 586.5 1171 586.5Z" stroke="#BEE27B"/>
<text fill="#1E5D18" style="white-space: pre" xml:space="preserve" font-family="Arimo" font-size="12" font-weight="bold" letter-spacing="0em"><tspan x="1113" y="600.32" font-family="Arimo">Equipment</tspan></text>
<path d="M1076 586.5H981C975.753 586.5 971.5 590.753 971.5 596V598C971.5 603.247 975.753 607.5 981 607.5H1076C1081.25 607.5 1085.5 603.247 1085.5 598V596C1085.5 590.753 1081.25 586.5 1076 586.5Z" fill="#FFF3D8"/>
<path d="M1076 586.5H981C975.753 586.5 971.5 590.753 971.5 596V598C971.5 603.247 975.753 607.5 981 607.5H1076C1081.25 607.5 1085.5 603.247 1085.5 598V596C1085.5 590.753 1081.25 586.5 1076 586.5Z" stroke="#FFD070"/>
<text fill="#D98A1F" style="white-space: pre" xml:space="preserve" font-family="Arimo" font-size="12" font-weight="bold" letter-spacing="0em"><tspan x="976" y="600.32" font-family="Arimo">Partial Breakdown</tspan></text>
<path d="M377 586.5H338C332.753 586.5 328.5 590.753 328.5 596V598C328.5 603.247 332.753 607.5 338 607.5H377C382.247 607.5 386.5 603.247 386.5 598V596C386.5 590.753 382.247 586.5 377 586.5Z" fill="#EBF9E0"/>
<path d="M377 586.5H338C332.753 586.5 328.5 590.753 328.5 596V598C328.5 603.247 332.753 607.5 338 607.5H377C382.247 607.5 386.5 603.247 386.5 598V596C386.5 590.753 382.247 586.5 377 586.5Z" stroke="#BEE27B"/>
<path d="M336.5 600.5C338.433 600.5 340 598.933 340 597C340 595.067 338.433 593.5 336.5 593.5C334.567 593.5 333 595.067 333 597C333 598.933 334.567 600.5 336.5 600.5Z" fill="#1E5D18"/>
<text fill="#1E5D18" style="white-space: pre" xml:space="preserve" font-family="Arimo" font-size="12" font-weight="bold" letter-spacing="0em"><tspan x="345" y="600.32" font-family="Arimo">Active</tspan></text>
<text fill="#282828" style="white-space: pre" xml:space="preserve" font-family="Arimo" font-size="14" letter-spacing="0em"><tspan x="1438" y="599.708" font-family="Arimo">92345678</tspan></text>
<text fill="#282828" style="white-space: pre" xml:space="preserve" font-family="Arimo" font-size="14" letter-spacing="0em"><tspan x="1546" y="599.708" font-family="Arimo">2020-01-23</tspan></text>
<text fill="#282828" style="white-space: pre" xml:space="preserve" font-family="Arimo" font-size="14" font-weight="bold" letter-spacing="0em"><tspan x="439.056" y="599.708" font-family="Arimo">Utility Building (501)</tspan></text>
<text fill="#282828" style="white-space: pre" xml:space="preserve" font-family="Arimo" font-size="14" letter-spacing="0em"><tspan x="212" y="599.708" font-family="Arimo">REQ-62835</tspan></text>
<path d="M175.301 604.24L170.607 599.547C171.968 597.914 172.646 595.819 172.501 593.698C172.357 591.577 171.4 589.593 169.83 588.16C168.26 586.727 166.198 585.954 164.073 586.002C161.947 586.05 159.923 586.916 158.419 588.419C156.916 589.923 156.05 591.947 156.002 594.073C155.954 596.198 156.727 598.26 158.16 599.83C159.593 601.4 161.577 602.357 163.698 602.501C165.819 602.646 167.914 601.968 169.547 600.607L174.24 605.301C174.31 605.371 174.393 605.426 174.484 605.464C174.575 605.502 174.672 605.521 174.771 605.521C174.869 605.521 174.967 605.502 175.058 605.464C175.149 605.426 175.232 605.371 175.301 605.301C175.371 605.232 175.426 605.149 175.464 605.058C175.502 604.967 175.521 604.869 175.521 604.771C175.521 604.672 175.502 604.575 175.464 604.484C175.426 604.393 175.371 604.31 175.301 604.24ZM157.521 594.271C157.521 592.936 157.917 591.631 158.658 590.521C159.4 589.411 160.454 588.545 161.688 588.035C162.921 587.524 164.278 587.39 165.588 587.65C166.897 587.911 168.1 588.554 169.044 589.498C169.988 590.442 170.631 591.644 170.891 592.954C171.151 594.263 171.018 595.62 170.507 596.854C169.996 598.087 169.131 599.141 168.021 599.883C166.911 600.625 165.606 601.021 164.271 601.021C162.481 601.019 160.765 600.307 159.5 599.042C158.235 597.776 157.523 596.06 157.521 594.271Z" fill="#0757B8"/>
<path d="M121 585H111C107.686 585 105 587.686 105 591V601C105 604.314 107.686 607 111 607H121C124.314 607 127 604.314 127 601V591C127 587.686 124.314 585 121 585Z" fill="#0B4DA2"/>
<path d="M122 590.914C122.132 590.914 122.263 590.94 122.385 590.991C122.507 591.042 122.617 591.116 122.71 591.21C122.812 591.304 122.893 591.417 122.948 591.544C123.004 591.67 123.032 591.807 123.032 591.945C123.032 592.083 123.004 592.219 122.948 592.346C122.893 592.472 122.812 592.586 122.71 592.68L114.55 600.84C114.457 600.933 114.347 601.008 114.225 601.059C114.103 601.109 113.972 601.136 113.84 601.136C113.708 601.136 113.578 601.109 113.456 601.059C113.334 601.008 113.223 600.934 113.13 600.84L109.29 597C109.194 596.907 109.116 596.795 109.063 596.672C109.009 596.549 108.981 596.416 108.979 596.282C108.976 596.148 109.001 596.015 109.05 595.891C109.099 595.766 109.173 595.651 109.266 595.555C109.359 595.458 109.47 595.381 109.593 595.327C109.716 595.274 109.848 595.245 109.983 595.243C110.117 595.241 110.25 595.265 110.375 595.314C110.5 595.364 110.614 595.437 110.71 595.53L113.84 598.67L121.29 591.21C121.383 591.116 121.494 591.042 121.615 590.991C121.737 590.94 121.868 590.914 122 590.914Z" fill="white"/>
<path d="M1857.5 645.5V747.5H82.5V645.5H1857.5Z" fill="white" stroke="#DDDDDD"/>
<path d="M1858 748V747H82V748V749H1858V748Z" fill="#D9E1EA"/>
<text fill="#282828" style="white-space: pre" xml:space="preserve" font-family="Arimo" font-size="14" letter-spacing="0em"><tspan x="1222" y="690.708" font-family="Arimo">Faridah Ong</tspan></text>
<text fill="#878682" style="white-space: pre" xml:space="preserve" font-family="Arimo" font-size="14" letter-spacing="0em"><tspan x="1222" y="710.708" font-family="Arimo">ID: 7154028</tspan></text>
<text fill="#282828" style="white-space: pre" xml:space="preserve" font-family="Arimo" font-size="14" letter-spacing="0em"><tspan x="629" y="698.854" font-family="Arimo">Compressor Room - Water Leak at Isolation </tspan><tspan x="629" y="714.854" font-family="Arimo">Valve</tspan></text>
<path d="M1171 687.5H1118C1112.75 687.5 1108.5 691.753 1108.5 697V699C1108.5 704.247 1112.75 708.5 1118 708.5H1171C1176.25 708.5 1180.5 704.247 1180.5 699V697C1180.5 691.753 1176.25 687.5 1171 687.5Z" fill="#EBF9E0"/>
<path d="M1171 687.5H1118C1112.75 687.5 1108.5 691.753 1108.5 697V699C1108.5 704.247 1112.75 708.5 1118 708.5H1171C1176.25 708.5 1180.5 704.247 1180.5 699V697C1180.5 691.753 1176.25 687.5 1171 687.5Z" stroke="#BEE27B"/>
<text fill="#1E5D18" style="white-space: pre" xml:space="preserve" font-family="Arimo" font-size="12" font-weight="bold" letter-spacing="0em"><tspan x="1113" y="701.32" font-family="Arimo">Facility</tspan></text>
<path d="M1076 687.5H981C975.753 687.5 971.5 691.753 971.5 697V699C971.5 704.247 975.753 708.5 981 708.5H1076C1081.25 708.5 1085.5 704.247 1085.5 699V697C1085.5 691.753 1081.25 687.5 1076 687.5Z" fill="#FFF3D8"/>
<path d="M1076 687.5H981C975.753 687.5 971.5 691.753 971.5 697V699C971.5 704.247 975.753 708.5 981 708.5H1076C1081.25 708.5 1085.5 704.247 1085.5 699V697C1085.5 691.753 1081.25 687.5 1076 687.5Z" stroke="#FFD070"/>
<text fill="#D98A1F" style="white-space: pre" xml:space="preserve" font-family="Arimo" font-size="12" font-weight="bold" letter-spacing="0em"><tspan x="976" y="701.32" font-family="Arimo">Partial Breakdown</tspan></text>
<path d="M377 687.5H338C332.753 687.5 328.5 691.753 328.5 697V699C328.5 704.247 332.753 708.5 338 708.5H377C382.247 708.5 386.5 704.247 386.5 699V697C386.5 691.753 382.247 687.5 377 687.5Z" fill="#EBF9E0"/>
<path d="M377 687.5H338C332.753 687.5 328.5 691.753 328.5 697V699C328.5 704.247 332.753 708.5 338 708.5H377C382.247 708.5 386.5 704.247 386.5 699V697C386.5 691.753 382.247 687.5 377 687.5Z" stroke="#BEE27B"/>
<path d="M336.5 701.5C338.433 701.5 340 699.933 340 698C340 696.067 338.433 694.5 336.5 694.5C334.567 694.5 333 696.067 333 698C333 699.933 334.567 701.5 336.5 701.5Z" fill="#1E5D18"/>
<text fill="#1E5D18" style="white-space: pre" xml:space="preserve" font-family="Arimo" font-size="12" font-weight="bold" letter-spacing="0em"><tspan x="345" y="701.32" font-family="Arimo">Active</tspan></text>
<text fill="#282828" style="white-space: pre" xml:space="preserve" font-family="Arimo" font-size="14" letter-spacing="0em"><tspan x="1438" y="700.708" font-family="Arimo">90123456</tspan></text>
<text fill="#282828" style="white-space: pre" xml:space="preserve" font-family="Arimo" font-size="14" letter-spacing="0em"><tspan x="1546" y="700.708" font-family="Arimo">2021-07-14</tspan></text>
<text fill="#282828" style="white-space: pre" xml:space="preserve" font-family="Arimo" font-size="14" font-weight="bold" letter-spacing="0em"><tspan x="439.056" y="700.708" font-family="Arimo">Utility Building (503)</tspan></text>
<text fill="#282828" style="white-space: pre" xml:space="preserve" font-family="Arimo" font-size="14" letter-spacing="0em"><tspan x="212" y="700.708" font-family="Arimo">REQ-63521</tspan></text>
<path d="M175.301 705.24L170.607 700.547C171.968 698.914 172.646 696.819 172.501 694.698C172.357 692.577 171.4 690.593 169.83 689.16C168.26 687.727 166.198 686.954 164.073 687.002C161.947 687.05 159.923 687.916 158.419 689.419C156.916 690.923 156.05 692.947 156.002 695.073C155.954 697.198 156.727 699.26 158.16 700.83C159.593 702.4 161.577 703.357 163.698 703.501C165.819 703.646 167.914 702.968 169.547 701.607L174.24 706.301C174.31 706.371 174.393 706.426 174.484 706.464C174.575 706.502 174.672 706.521 174.771 706.521C174.869 706.521 174.967 706.502 175.058 706.464C175.149 706.426 175.232 706.371 175.301 706.301C175.371 706.232 175.426 706.149 175.464 706.058C175.502 705.967 175.521 705.869 175.521 705.771C175.521 705.672 175.502 705.575 175.464 705.484C175.426 705.393 175.371 705.31 175.301 705.24ZM157.521 695.271C157.521 693.936 157.917 692.631 158.658 691.521C159.4 690.411 160.454 689.545 161.688 689.035C162.921 688.524 164.278 688.39 165.588 688.65C166.897 688.911 168.1 689.554 169.044 690.498C169.988 691.442 170.631 692.644 170.891 693.954C171.151 695.263 171.018 696.62 170.507 697.854C169.996 699.087 169.131 700.141 168.021 700.883C166.911 701.625 165.606 702.021 164.271 702.021C162.481 702.019 160.765 701.307 159.5 700.042C158.235 698.776 157.523 697.06 157.521 695.271Z" fill="#0757B8"/>
<path d="M111 686.5H121C124.038 686.5 126.5 688.962 126.5 692V702C126.5 705.038 124.038 707.5 121 707.5H111C107.962 707.5 105.5 705.038 105.5 702V692C105.5 688.962 107.962 686.5 111 686.5Z" fill="#F5F5F5" stroke="#D9E1EA"/>
<path d="M1857.5 746.5V848.5H82.5V746.5H1857.5Z" fill="white" stroke="#DDDDDD"/>
<path d="M1858 849V848H82V849V850H1858V849Z" fill="#D9E1EA"/>
<text fill="#282828" style="white-space: pre" xml:space="preserve" font-family="Arimo" font-size="14" letter-spacing="0em"><tspan x="1222" y="791.708" font-family="Arimo">Kelvin Goh</tspan></text>
<text fill="#878682" style="white-space: pre" xml:space="preserve" font-family="Arimo" font-size="14" letter-spacing="0em"><tspan x="1222" y="811.708" font-family="Arimo">ID: 6841259</tspan></text>
<text fill="#282828" style="white-space: pre" xml:space="preserve" font-family="Arimo" font-size="14" letter-spacing="0em"><tspan x="629" y="799.854" font-family="Arimo">Service Bay 1 - Faulty Lighting Control </tspan><tspan x="629" y="815.854" font-family="Arimo">Panel</tspan></text>
<path d="M1171 788.5H1118C1112.75 788.5 1108.5 792.753 1108.5 798V800C1108.5 805.247 1112.75 809.5 1118 809.5H1171C1176.25 809.5 1180.5 805.247 1180.5 800V798C1180.5 792.753 1176.25 788.5 1171 788.5Z" fill="#EBF9E0"/>
<path d="M1171 788.5H1118C1112.75 788.5 1108.5 792.753 1108.5 798V800C1108.5 805.247 1112.75 809.5 1118 809.5H1171C1176.25 809.5 1180.5 805.247 1180.5 800V798C1180.5 792.753 1176.25 788.5 1171 788.5Z" stroke="#BEE27B"/>
<text fill="#1E5D18" style="white-space: pre" xml:space="preserve" font-family="Arimo" font-size="12" font-weight="bold" letter-spacing="0em"><tspan x="1113" y="802.32" font-family="Arimo">Equipment</tspan></text>
<path d="M1076 788.5H981C975.753 788.5 971.5 792.753 971.5 798V800C971.5 805.247 975.753 809.5 981 809.5H1076C1081.25 809.5 1085.5 805.247 1085.5 800V798C1085.5 792.753 1081.25 788.5 1076 788.5Z" fill="#FFF3D8"/>
<path d="M1076 788.5H981C975.753 788.5 971.5 792.753 971.5 798V800C971.5 805.247 975.753 809.5 981 809.5H1076C1081.25 809.5 1085.5 805.247 1085.5 800V798C1085.5 792.753 1081.25 788.5 1076 788.5Z" stroke="#FFD070"/>
<text fill="#D98A1F" style="white-space: pre" xml:space="preserve" font-family="Arimo" font-size="12" font-weight="bold" letter-spacing="0em"><tspan x="976" y="802.32" font-family="Arimo">Pending</tspan></text>
<path d="M377 788.5H338C332.753 788.5 328.5 792.753 328.5 798V800C328.5 805.247 332.753 809.5 338 809.5H377C382.247 809.5 386.5 805.247 386.5 800V798C386.5 792.753 382.247 788.5 377 788.5Z" fill="#EBF9E0"/>
<path d="M377 788.5H338C332.753 788.5 328.5 792.753 328.5 798V800C328.5 805.247 332.753 809.5 338 809.5H377C382.247 809.5 386.5 805.247 386.5 800V798C386.5 792.753 382.247 788.5 377 788.5Z" stroke="#BEE27B"/>
<path d="M336.5 802.5C338.433 802.5 340 800.933 340 799C340 797.067 338.433 795.5 336.5 795.5C334.567 795.5 333 797.067 333 799C333 800.933 334.567 802.5 336.5 802.5Z" fill="#1E5D18"/>
<text fill="#1E5D18" style="white-space: pre" xml:space="preserve" font-family="Arimo" font-size="12" font-weight="bold" letter-spacing="0em"><tspan x="345" y="802.32" font-family="Arimo">Pending</tspan></text>
<text fill="#282828" style="white-space: pre" xml:space="preserve" font-family="Arimo" font-size="14" letter-spacing="0em"><tspan x="1438" y="801.708" font-family="Arimo">88991234</tspan></text>
<text fill="#282828" style="white-space: pre" xml:space="preserve" font-family="Arimo" font-size="14" letter-spacing="0em"><tspan x="1546" y="801.708" font-family="Arimo">2022-11-08</tspan></text>
<text fill="#282828" style="white-space: pre" xml:space="preserve" font-family="Arimo" font-size="14" font-weight="bold" letter-spacing="0em"><tspan x="439" y="793.854" font-family="Arimo">Hangar Support Block </tspan><tspan x="439" y="809.854" font-family="Arimo">(612)</tspan></text>
<text fill="#282828" style="white-space: pre" xml:space="preserve" font-family="Arimo" font-size="14" letter-spacing="0em"><tspan x="212" y="801.708" font-family="Arimo">REQ-64892</tspan></text>
<path d="M175.301 806.24L170.607 801.547C171.968 799.914 172.646 797.819 172.501 795.698C172.357 793.577 171.4 791.593 169.83 790.16C168.26 788.727 166.198 787.954 164.073 788.002C161.947 788.05 159.923 788.916 158.419 790.419C156.916 791.923 156.05 793.947 156.002 796.073C155.954 798.198 156.727 800.26 158.16 801.83C159.593 803.4 161.577 804.357 163.698 804.501C165.819 804.646 167.914 803.968 169.547 802.607L174.24 807.301C174.31 807.371 174.393 807.426 174.484 807.464C174.575 807.502 174.672 807.521 174.771 807.521C174.869 807.521 174.967 807.502 175.058 807.464C175.149 807.426 175.232 807.371 175.301 807.301C175.371 807.232 175.426 807.149 175.464 807.058C175.502 806.967 175.521 806.869 175.521 806.771C175.521 806.672 175.502 806.575 175.464 806.484C175.426 806.393 175.371 806.31 175.301 806.24ZM157.521 796.271C157.521 794.936 157.917 793.631 158.658 792.521C159.4 791.411 160.454 790.545 161.688 790.035C162.921 789.524 164.278 789.39 165.588 789.65C166.897 789.911 168.1 790.554 169.044 791.498C169.988 792.442 170.631 793.644 170.891 794.954C171.151 796.263 171.018 797.62 170.507 798.854C169.996 800.087 169.131 801.141 168.021 801.883C166.911 802.625 165.606 803.021 164.271 803.021C162.481 803.019 160.765 802.307 159.5 801.042C158.235 799.776 157.523 798.06 157.521 796.271Z" fill="#0757B8"/>
<path d="M111 787.5H121C124.038 787.5 126.5 789.962 126.5 793V803C126.5 806.038 124.038 808.5 121 808.5H111C107.962 808.5 105.5 806.038 105.5 803V793C105.5 789.962 107.962 787.5 111 787.5Z" fill="#F5F5F5" stroke="#D9E1EA"/>
<path d="M1857.5 453.5H82.5V646.5H1857.5V453.5Z" stroke="#D9E1EA"/>
<path d="M179.983 654.57V654.239C179.983 652.269 178.373 650.66 176.383 650.66C175.933 650.66 175.503 650.738 175.113 650.894C174.773 649.265 173.323 648.036 171.593 648.036C171.123 648.036 170.673 648.124 170.263 648.29C169.823 646.788 168.383 645.646 166.723 645.646C166.273 645.646 165.843 645.734 165.443 645.89V641.579C165.443 639.609 163.833 638 161.843 638C159.853 638 158.253 639.609 158.253 641.579V652.122C157.623 651.323 156.863 650.62 155.993 650.269C155.013 649.87 153.983 649.918 153.013 650.406C151.223 651.313 150.493 653.488 151.373 655.273L155.843 664.275C155.973 664.519 158.993 670.322 164.473 670.322H170.863C175.903 670.322 180.003 666.216 180.003 661.164V654.561L179.983 654.57Z" fill="black"/>
<path d="M170.853 667.932H164.463C160.513 667.932 158.053 663.358 157.973 663.192L153.523 654.209C153.213 653.585 153.473 652.854 154.103 652.532C154.453 652.356 154.753 652.337 155.083 652.473C156.403 653.01 157.703 655.614 158.213 657.135L158.603 658.286L160.663 657.565V641.579C160.663 640.926 161.203 640.389 161.863 640.389C162.523 640.389 163.063 640.926 163.063 641.579V655.351H165.483V649.304C165.483 648.64 166.083 648.026 166.743 648.026C167.403 648.026 168.023 648.582 168.023 649.216V655.741H170.423V651.605C170.423 650.942 170.963 650.416 171.623 650.416C172.283 650.416 172.823 650.952 172.823 651.605V656.862H175.223V654.239C175.223 653.576 175.763 653.049 176.423 653.049C177.083 653.049 177.623 653.585 177.623 654.239V655.946V661.173C177.623 664.899 174.603 667.942 170.883 667.942L170.853 667.932Z" fill="white"/>
<g filter="url(#filter0_d_355_949)">
<path d="M1360.5 863H559.5C542.103 863 528 877.103 528 894.5C528 911.897 542.103 926 559.5 926H1360.5C1377.9 926 1392 911.897 1392 894.5C1392 877.103 1377.9 863 1360.5 863Z" fill="#0B4DA2"/>
<path d="M1361 876H1194C1182.95 876 1174 884.954 1174 896C1174 907.046 1182.95 916 1194 916H1361C1372.05 916 1381 907.046 1381 896C1381 884.954 1372.05 876 1361 876Z" fill="#2DB55D"/>
<text fill="white" style="white-space: pre" xml:space="preserve" font-family="Arimo" font-size="18" font-weight="bold" letter-spacing="0em"><tspan x="1200.43" y="900.48" font-family="Arimo">Update statuses</tspan></text>
<path d="M1364.57 889.75L1370.48 895.875L1364.57 902" stroke="white" stroke-width="1.5" stroke-linecap="round" stroke-linejoin="round"/>
<text fill="#C1BDC7" style="white-space: pre" xml:space="preserve" font-family="Arimo" font-size="14" letter-spacing="0em"><tspan x="1093.26" y="891.708" font-family="Arimo">Clear </tspan></text>
<text fill="#C1BDC7" style="white-space: pre" xml:space="preserve" font-family="Arimo" font-size="14" letter-spacing="0em"><tspan x="1081.18" y="907.708" font-family="Arimo">Selection</tspan></text>
<path d="M1059.5 880V913" stroke="#C1BDC7"/>
<path fill-rule="evenodd" clip-rule="evenodd" d="M558.874 894.94C558.873 893.333 559.258 891.75 559.994 890.322C560.731 888.895 561.799 887.664 563.108 886.734C564.418 885.804 565.931 885.2 567.522 884.975C569.112 884.749 570.734 884.908 572.25 885.437C572.61 885.563 573.005 885.54 573.349 885.374C573.692 885.208 573.955 884.913 574.08 884.553C574.206 884.192 574.183 883.797 574.017 883.454C573.851 883.111 573.556 882.847 573.196 882.722C570.548 881.798 567.671 881.76 564.999 882.614C562.327 883.467 560.005 885.166 558.383 887.455C556.761 889.743 555.926 892.497 556.005 895.301C556.084 898.105 557.072 900.807 558.821 903.001C560.569 905.194 562.983 906.76 565.699 907.462C568.415 908.164 571.285 907.964 573.877 906.892C576.469 905.82 578.642 903.935 580.07 901.52C581.497 899.105 582.101 896.292 581.79 893.504C581.77 893.316 581.712 893.135 581.621 892.969C581.53 892.804 581.408 892.658 581.26 892.54C581.113 892.422 580.944 892.334 580.762 892.282C580.581 892.229 580.391 892.213 580.204 892.233C580.016 892.254 579.834 892.312 579.669 892.403C579.504 892.494 579.358 892.616 579.24 892.764C579.122 892.911 579.034 893.08 578.981 893.261C578.929 893.443 578.912 893.633 578.933 893.82C579.085 895.18 578.957 896.556 578.559 897.865C578.16 899.173 577.499 900.387 576.616 901.432C575.732 902.476 574.645 903.33 573.421 903.94C572.197 904.55 570.861 904.904 569.495 904.98C568.129 905.056 566.762 904.853 565.478 904.383C564.193 903.913 563.018 903.186 562.024 902.246C561.03 901.306 560.238 900.174 559.696 898.918C559.155 897.661 558.875 896.308 558.874 894.94ZM580.073 887.267C580.325 886.981 580.454 886.607 580.43 886.226C580.406 885.845 580.232 885.49 579.946 885.237C579.661 884.985 579.286 884.857 578.906 884.88C578.525 884.904 578.169 885.078 577.917 885.364L568.669 895.828L564.094 892.101C563.948 891.982 563.779 891.892 563.599 891.838C563.418 891.784 563.228 891.766 563.04 891.785C562.661 891.824 562.313 892.011 562.072 892.307C561.952 892.453 561.863 892.621 561.809 892.802C561.755 892.983 561.737 893.173 561.756 893.36C561.794 893.74 561.982 894.088 562.277 894.329L567.924 898.929C568.212 899.163 568.579 899.277 568.948 899.246C569.318 899.216 569.662 899.044 569.907 898.766L580.073 887.267Z" fill="#2DB55D"/>
<text fill="white" style="white-space: pre" xml:space="preserve" font-family="Arimo" font-size="18" font-weight="bold" letter-spacing="0em"><tspan x="599.87" y="899.917" font-family="Arimo">1 request selected</tspan></text>
<path d="M1032 875.5H800C794.753 875.5 790.5 879.753 790.5 885V905C790.5 910.247 794.753 914.5 800 914.5H1032C1037.25 914.5 1041.5 910.247 1041.5 905V885C1041.5 879.753 1037.25 875.5 1032 875.5Z" fill="white"/>
<path d="M1032 875.5H800C794.753 875.5 790.5 879.753 790.5 885V905C790.5 910.247 794.753 914.5 800 914.5H1032C1037.25 914.5 1041.5 910.247 1041.5 905V885C1041.5 879.753 1037.25 875.5 1032 875.5Z" stroke="#D9E1EA"/>
<text fill="#282828" style="white-space: pre" xml:space="preserve" font-family="Arimo" font-size="14" font-weight="bold" letter-spacing="0em"><tspan x="798" y="898.708" font-family="Arimo">Active</tspan></text>
<path d="M1028.5 899.5L1033.26 892.75H1023.74L1028.5 899.5Z" fill="#878682"/>
</g>
</g>
</g>
<circle cx="1778.5" cy="68" r="20" fill="#D9D9D9"/>
<text fill="#282828" style="white-space: pre" xml:space="preserve" font-family="Arimo" font-size="14" font-weight="bold" letter-spacing="0em"><tspan x="1819.5" y="72.8535" font-family="Arimo">Karen</tspan></text>
<path d="M155.9 76.0999L153.4 68.7999H142.6L140.1 76.0999H134.1L144.5 47.7H151.5L161.8 76.0999H155.9ZM148 52V52.4C147.7 52.9 147.6 53.4 147.4 54.1C147.2 54.7 146.1 58.0999 143.9 64.2999H152.1L149.3 56.1L148.4 53.4L148 52Z" fill="#2D343F"/>
<path d="M174.7 76.5C171.4 76.5 168.9 75.5 167.1 73.6C165.3 71.7 164.5 68.8 164.5 65.1C164.5 61.4 165.4 58.7 167.2 56.8C169 54.9 171.5 53.9 174.8 53.9C178.1 53.9 180.3 54.9 182 57C183.7 59.1 184.5 62.1 184.5 66.1V66.3H170.5C170.5 68.4 170.9 70 171.7 71.1C172.5 72.2 173.6 72.7 175.1 72.7C176.6 72.7 178.4 71.8 178.9 70.1L184.2 70.6C182.7 74.6 179.5 76.5 174.8 76.5H174.7ZM174.7 57.4C173.4 57.4 172.3 57.9 171.6 58.8C170.9 59.7 170.5 61 170.5 62.7H179C179 60.9 178.5 59.6 177.7 58.7C177 57.8 176 57.4 174.7 57.4Z" fill="#2D343F"/>
<path d="M188.8 76.1V54.3H194.2C194.2 54.5 194.2 55.3 194.4 56.5C194.6 57.7 194.4 58.5 194.4 59C195 57.5 195.4 56.4 195.9 55.8C196.3 55.2 196.8 54.7 197.4 54.4C198 54.1 198.7 53.9 199.6 53.9C200.5 53.9 200.9 53.9 201.4 54.2V58.9C200.5 58.7 199.7 58.6 199 58.6C197.6 58.6 196.5 59.2 195.7 60.3C194.9 61.4 194.5 63.1 194.5 65.4V76.1H188.8Z" fill="#2D343F"/>
<path d="M225.6 65.0999C225.6 68.5999 224.6 71.3999 222.7 73.3999C220.7 75.3999 218 76.3999 214.5 76.3999C211 76.3999 208.4 75.3999 206.5 73.3999C204.6 71.3999 203.6 68.5999 203.6 65.0999C203.6 61.5999 204.6 58.7999 206.5 56.7999C208.4 54.7999 211.1 53.7999 214.6 53.7999C218.1 53.7999 220.9 54.7999 222.8 56.6999C224.7 58.5999 225.6 61.3999 225.6 65.0999ZM219.7 65.0999C219.7 62.4999 219.3 60.5999 218.4 59.3999C217.6 58.1999 216.3 57.5999 214.7 57.5999C211.3 57.5999 209.5 60.0999 209.5 64.9999C209.5 69.8999 209.9 69.2999 210.8 70.5999C211.6 71.8999 212.9 72.4999 214.4 72.4999C217.9 72.4999 219.6 69.9999 219.6 64.9999L219.7 65.0999Z" fill="#2D343F"/>
<path d="M236 52.2V61H250.6V65.6H236V76H230V47.6H251V52.2H236Z" fill="#2D343F"/>
<path d="M255.4 76.1V46.1H261.1V76.1H255.4Z" fill="#2D343F"/>
<path d="M287.6 65.0999C287.6 68.5999 286.6 71.3999 284.7 73.3999C282.7 75.3999 280 76.3999 276.5 76.3999C273 76.3999 270.4 75.3999 268.5 73.3999C266.6 71.3999 265.6 68.5999 265.6 65.0999C265.6 61.5999 266.6 58.7999 268.5 56.7999C270.4 54.7999 273.1 53.7999 276.6 53.7999C280.1 53.7999 282.9 54.7999 284.8 56.6999C286.7 58.5999 287.6 61.3999 287.6 65.0999ZM281.7 65.0999C281.7 62.4999 281.3 60.5999 280.4 59.3999C279.6 58.1999 278.3 57.5999 276.7 57.5999C273.3 57.5999 271.5 60.0999 271.5 64.9999C271.5 69.8999 271.9 69.2999 272.8 70.5999C273.6 71.8999 274.9 72.4999 276.4 72.4999C279.9 72.4999 281.6 69.9999 281.6 64.9999L281.7 65.0999Z" fill="#2D343F"/>
<path d="M315.7 76.0999H309.7L306.2 62.7999C306 62.1999 305.7 60.6999 305.3 58.2999L304.3 62.7999L300.8 76.0999H294.8L289.1 54.2999H294.4L298 70.9999L298.3 69.4999L298.8 67.0999L302.2 54.2999H308.3L311.7 67.0999C311.9 67.7999 312.2 69.0999 312.5 70.9999L313.1 68.2999L316.2 54.2999H321.4L315.7 76.0999Z" fill="#2D343F"/>
<path d="M84.9001 61.8C85.2001 59.5 86.1001 57.3 87.5001 55.5L81.6001 49.6C78.8001 52.9 76.9001 57.2 76.6001 61.8H85.0001H84.9001Z" fill="#0659AE"/>
<path d="M90.1002 53C91.9002 51.6 94.0002 50.7 96.4002 50.4V42C91.8002 42.4 87.6002 44.2 84.2002 47L90.1002 52.9V53Z" fill="#0659AE"/>
<path d="M100 42V50.4C102.3 50.7 104.5 51.6 106.3 53L112.2 47.1C108.9 44.3 104.6 42.4 100 42.1V42Z" fill="#0659AE"/>
<path d="M87.5 71.8C86.1 70 85.2 67.9 84.9 65.5H76.5C76.9 70.1 78.7 74.3 81.5 77.7L87.4 71.8H87.5Z" fill="#0659AE"/>
<path d="M96.4002 77C94.1002 76.7 91.9002 75.8 90.1002 74.4L84.2002 80.3C87.5002 83.1 91.8002 85 96.4002 85.3V76.9V77Z" fill="#0659AE"/>
<path d="M106.3 74.4C104.5 75.8 102.4 76.7 100 77V85.4C104.6 85 108.8 83.2 112.2 80.4L106.3 74.5V74.4Z" fill="#0659AE"/>
<path d="M108.9 55.6C110.3 57.4 111.2 59.5 111.5 61.9H119.9C119.5 57.3 117.7 53.1 114.9 49.7L109 55.6H108.9Z" fill="#0659AE"/>
<path d="M111.5 65.5C111.2 67.8 110.3 70 108.9 71.8L114.8 77.7C117.6 74.4 119.5 70.1 119.8 65.5H111.4H111.5Z" fill="#0659AE"/>
<text fill="#5F7FD0" style="white-space: pre" xml:space="preserve" font-family="Arimo" font-size="32" font-weight="bold" letter-spacing="0em"><tspan x="380" y="75.5938" font-family="Arimo">Maintenance Application</tspan></text>
</g>
<defs>
<filter id="filter0_d_355_949" x="524" y="863" width="872" height="71" filterUnits="userSpaceOnUse" color-interpolation-filters="sRGB">
<feFlood flood-opacity="0" result="BackgroundImageFix"/>
<feColorMatrix in="SourceAlpha" type="matrix" values="0 0 0 0 0 0 0 0 0 0 0 0 0 0 0 0 0 0 127 0" result="hardAlpha"/>
<feOffset dy="4"/>
<feGaussianBlur stdDeviation="2"/>
<feComposite in2="hardAlpha" operator="out"/>
<feColorMatrix type="matrix" values="0 0 0 0 0 0 0 0 0 0 0 0 0 0 0 0 0 0 0.25 0"/>
<feBlend mode="normal" in2="BackgroundImageFix" result="effect1_dropShadow_355_949"/>
<feBlend mode="normal" in="SourceGraphic" in2="effect1_dropShadow_355_949" result="shape"/>
</filter>
<linearGradient id="paint0_linear_355_949" x1="20.5" y1="0" x2="20.5" y2="1024" gradientUnits="userSpaceOnUse">
<stop stop-color="#1672D4"/>
<stop offset="1" stop-color="#0757B8"/>
</linearGradient>
<clipPath id="clip0_355_949">
<rect width="1920" height="1024" fill="white"/>
</clipPath>
</defs>
</svg>