<?xml version='1.0' encoding='UTF-8'?>
<svg xmlns="http://www.w3.org/2000/svg" width="834" height="1194" viewBox="0 0 834 1194" fill="none">
<defs><style type="text/css"><![CDATA[
@import url('https://fonts.googleapis.com/css2?family=Arimo:ital,wght@0,400;0,700;1,400;1,700&display=swap');

text,
tspan {
    font-family: 'Arimo', Arial, sans-serif !important;
}
]]></style></defs><g clip-path="url(#clip0_355_1295)">
<path d="M834 0H0V1194H834V0Z" fill="white"/>
<path d="M546.6 17H8V60.4H546.6V17Z" fill="white"/>
<path d="M180 105.5H27C21.7533 105.5 17.5 109.753 17.5 115V180C17.5 185.247 21.7533 189.5 27 189.5H180C185.247 189.5 189.5 185.247 189.5 180V115C189.5 109.753 185.247 105.5 180 105.5Z" fill="white"/>
<path d="M180 105.5H27C21.7533 105.5 17.5 109.753 17.5 115V180C17.5 185.247 21.7533 189.5 27 189.5H180C185.247 189.5 189.5 185.247 189.5 180V115C189.5 109.753 185.247 105.5 180 105.5Z" stroke="#D7E6F7"/>
<text fill="#878682" style="white-space: pre" xml:space="preserve" font-family="Arimo" font-size="12" font-weight="bold" letter-spacing="0em"><tspan x="29.5" y="134.32" font-family="Arimo">TOTAL METERS</tspan></text>
<text fill="#282828" style="white-space: pre" xml:space="preserve" font-family="Arimo" font-size="24" font-weight="bold" letter-spacing="0em"><tspan x="29.5" y="163.64" font-family="Arimo">38</tspan></text>
<path d="M167.5 129.5H151.5C145.977 129.5 141.5 133.977 141.5 139.5V155.5C141.5 161.023 145.977 165.5 151.5 165.5H167.5C173.023 165.5 177.5 161.023 177.5 155.5V139.5C177.5 133.977 173.023 129.5 167.5 129.5Z" fill="#F4E9FF"/>
<path d="M167.971 142.939C166.86 141.845 165.539 140.978 164.085 140.388C162.631 139.797 161.073 139.496 159.5 139.5H159.457C152.865 139.522 147.5 144.868 147.5 151.408V153.816C147.5 154.262 147.681 154.691 148.002 155.007C148.324 155.323 148.76 155.5 149.214 155.5H169.786C170.24 155.5 170.676 155.323 170.998 155.007C171.319 154.691 171.5 154.262 171.5 153.816V151.289C171.504 149.737 171.195 148.2 170.589 146.766C169.983 145.333 169.093 144.032 167.971 142.939ZM169.786 153.816H158.612L164.479 145.89C164.613 145.709 164.668 145.483 164.633 145.263C164.597 145.042 164.474 144.844 164.29 144.713C164.106 144.581 163.877 144.527 163.652 144.562C163.428 144.596 163.226 144.717 163.092 144.898L156.491 153.816H149.214V151.408C149.214 151.084 149.23 150.764 149.26 150.447H151.786C152.013 150.447 152.231 150.359 152.392 150.201C152.553 150.043 152.643 149.829 152.643 149.605C152.643 149.382 152.553 149.168 152.392 149.01C152.231 148.852 152.013 148.763 151.786 148.763H149.565C150.67 144.673 154.279 141.58 158.643 141.22V143.711C158.643 143.934 158.733 144.148 158.894 144.306C159.055 144.464 159.273 144.553 159.5 144.553C159.727 144.553 159.945 144.464 160.106 144.306C160.267 144.148 160.357 143.934 160.357 143.711V141.219C162.484 141.395 164.502 142.215 166.133 143.567C167.765 144.918 168.929 146.734 169.464 148.763H167.214C166.987 148.763 166.769 148.852 166.608 149.01C166.447 149.168 166.357 149.382 166.357 149.605C166.357 149.829 166.447 150.043 166.608 150.201C166.769 150.359 166.987 150.447 167.214 150.447H169.75C169.773 150.726 169.786 151.006 169.786 151.289V153.816Z" fill="#0757B8"/>
<path d="M363 105.5H210C204.753 105.5 200.5 109.753 200.5 115V180C200.5 185.247 204.753 189.5 210 189.5H363C368.247 189.5 372.5 185.247 372.5 180V115C372.5 109.753 368.247 105.5 363 105.5Z" fill="white"/>
<path d="M363 105.5H210C204.753 105.5 200.5 109.753 200.5 115V180C200.5 185.247 204.753 189.5 210 189.5H363C368.247 189.5 372.5 185.247 372.5 180V115C372.5 109.753 368.247 105.5 363 105.5Z" stroke="#D7E6F7"/>
<text fill="#D95C5C" style="white-space: pre" xml:space="preserve" font-family="Arimo" font-size="12" font-weight="bold" letter-spacing="0em"><tspan x="212.5" y="133.32" font-family="Arimo">PENDING</tspan></text>
<text fill="#D95C5C" style="white-space: pre" xml:space="preserve" font-family="Arimo" font-size="24" font-weight="bold" letter-spacing="0em"><tspan x="212.5" y="164.64" font-family="Arimo">5</tspan></text>
<path d="M350.5 129.5H334.5C328.977 129.5 324.5 133.977 324.5 139.5V155.5C324.5 161.023 328.977 165.5 334.5 165.5H350.5C356.023 165.5 360.5 161.023 360.5 155.5V139.5C360.5 133.977 356.023 129.5 350.5 129.5Z" fill="#EFF6FF"/>
<path d="M342.5 137.75C340.572 137.75 338.687 138.322 337.083 139.393C335.48 140.465 334.23 141.987 333.492 143.769C332.754 145.55 332.561 147.511 332.937 149.402C333.314 151.293 334.242 153.031 335.606 154.394C336.969 155.758 338.707 156.686 340.598 157.063C342.489 157.439 344.45 157.246 346.231 156.508C348.013 155.77 349.535 154.52 350.607 152.917C351.678 151.313 352.25 149.428 352.25 147.5C352.247 144.915 351.219 142.437 349.391 140.609C347.563 138.781 345.085 137.753 342.5 137.75ZM342.5 155.75C340.868 155.75 339.273 155.266 337.917 154.36C336.56 153.453 335.502 152.165 334.878 150.657C334.254 149.15 334.09 147.491 334.409 145.891C334.727 144.29 335.513 142.82 336.666 141.666C337.82 140.513 339.29 139.727 340.891 139.409C342.491 139.09 344.15 139.254 345.657 139.878C347.165 140.502 348.453 141.56 349.36 142.917C350.266 144.273 350.75 145.868 350.75 147.5C350.748 149.687 349.878 151.784 348.331 153.331C346.784 154.878 344.687 155.748 342.5 155.75ZM348.5 147.5C348.5 147.699 348.421 147.89 348.28 148.03C348.14 148.171 347.949 148.25 347.75 148.25H344.31L346.781 150.719C346.85 150.789 346.906 150.872 346.943 150.963C346.981 151.054 347 151.151 347 151.25C347 151.349 346.981 151.446 346.943 151.537C346.906 151.628 346.85 151.711 346.781 151.781C346.711 151.85 346.628 151.906 346.537 151.943C346.446 151.981 346.349 152 346.25 152C346.151 152 346.054 151.981 345.963 151.943C345.872 151.906 345.789 151.85 345.719 151.781L341.969 148.031C341.864 147.926 341.793 147.792 341.764 147.646C341.735 147.501 341.75 147.35 341.807 147.213C341.863 147.076 341.96 146.959 342.083 146.876C342.206 146.794 342.352 146.75 342.5 146.75H347.75C347.949 146.75 348.14 146.829 348.28 146.97C348.421 147.11 348.5 147.301 348.5 147.5Z" fill="#D95C5C"/>
<path d="M546 105.5H393C387.753 105.5 383.5 109.753 383.5 115V180C383.5 185.247 387.753 189.5 393 189.5H546C551.247 189.5 555.5 185.247 555.5 180V115C555.5 109.753 551.247 105.5 546 105.5Z" fill="white"/>
<path d="M546 105.5H393C387.753 105.5 383.5 109.753 383.5 115V180C383.5 185.247 387.753 189.5 393 189.5H546C551.247 189.5 555.5 185.247 555.5 180V115C555.5 109.753 551.247 105.5 546 105.5Z" stroke="#D7E6F7"/>
<text fill="#1E5D18" style="white-space: pre" xml:space="preserve" font-family="Arimo" font-size="12" font-weight="bold" letter-spacing="0em"><tspan x="395.5" y="134.32" font-family="Arimo">SUBMITTED</tspan></text>
<text fill="#1E5D18" style="white-space: pre" xml:space="preserve" font-family="Arimo" font-size="24" font-weight="bold" letter-spacing="0em"><tspan x="395.5" y="163.64" font-family="Arimo">33</tspan></text>
<path d="M533.5 129.5H517.5C511.977 129.5 507.5 133.977 507.5 139.5V155.5C507.5 161.023 511.977 165.5 517.5 165.5H533.5C539.023 165.5 543.5 161.023 543.5 155.5V139.5C543.5 133.977 539.023 129.5 533.5 129.5Z" fill="#ECFFC9"/>
<path d="M535.934 143.461L523.896 155.499C523.615 155.78 523.234 155.938 522.836 155.938C522.438 155.938 522.057 155.78 521.776 155.499L515.061 148.749C514.781 148.468 514.623 148.087 514.623 147.689C514.623 147.292 514.781 146.911 515.061 146.629L516.936 144.754C517.217 144.474 517.598 144.317 517.995 144.317C518.392 144.317 518.772 144.474 519.053 144.754L522.874 148.459L531.945 139.5C532.226 139.219 532.607 139.062 533.004 139.062C533.401 139.062 533.781 139.219 534.063 139.5L535.933 141.331C536.074 141.471 536.185 141.637 536.261 141.819C536.338 142.002 536.377 142.198 536.377 142.396C536.377 142.594 536.338 142.79 536.262 142.973C536.186 143.156 536.074 143.322 535.934 143.461Z" fill="#2DB55D"/>
<path d="M806 105.5H576C570.753 105.5 566.5 109.753 566.5 115V180C566.5 185.247 570.753 189.5 576 189.5H806C811.247 189.5 815.5 185.247 815.5 180V115C815.5 109.753 811.247 105.5 806 105.5Z" fill="white"/>
<path d="M806 105.5H576C570.753 105.5 566.5 109.753 566.5 115V180C566.5 185.247 570.753 189.5 576 189.5H806C811.247 189.5 815.5 185.247 815.5 180V115C815.5 109.753 811.247 105.5 806 105.5Z" stroke="#D7E6F7"/>
<text fill="#878682" style="white-space: pre" xml:space="preserve" font-family="Arimo" font-size="12" font-weight="bold" letter-spacing="0em"><tspan x="583" y="128.32" font-family="Arimo">PROGRESS</tspan></text>
<text fill="#0757B8" style="white-space: pre" xml:space="preserve" font-family="Arimo" font-size="14" font-weight="bold" letter-spacing="0em"><tspan x="770" y="129.708" font-family="Arimo">87%</tspan></text>
<mask id="mask0_355_1295" style="mask-type:luminance" maskUnits="userSpaceOnUse" x="583" y="143" width="216" height="11">
<path d="M793.5 143H588.5C585.462 143 583 145.462 583 148.5C583 151.538 585.462 154 588.5 154H793.5C796.538 154 799 151.538 799 148.5C799 145.462 796.538 143 793.5 143Z" fill="white"/>
</mask>
<g mask="url(#mask0_355_1295)">
<path d="M793.5 143H588.5C585.462 143 583 145.462 583 148.5C583 151.538 585.462 154 588.5 154H793.5C796.538 154 799 151.538 799 148.5C799 145.462 796.538 143 793.5 143Z" fill="white"/>
<path d="M769 140H583V157H769V140Z" fill="#0757B8"/>
</g>
<path d="M793.5 143.5H588.5C585.739 143.5 583.5 145.739 583.5 148.5C583.5 151.261 585.739 153.5 588.5 153.5H793.5C796.261 153.5 798.5 151.261 798.5 148.5C798.5 145.739 796.261 143.5 793.5 143.5Z" stroke="#D9E1EA"/>
<text fill="#878682" style="white-space: pre" xml:space="preserve" font-family="Arimo" font-size="12" letter-spacing="0em"><tspan x="696.836" y="173.32" font-family="Arimo">33 of 38 completed</tspan></text>
<path d="M211.959 219.5H27C21.7533 219.5 17.5 223.753 17.5 229V244C17.5 249.247 21.7533 253.5 27 253.5H211.959C217.206 253.5 221.459 249.247 221.459 244V229C221.459 223.753 217.206 219.5 211.959 219.5Z" fill="white"/>
<path d="M211.959 219.5H27C21.7533 219.5 17.5 223.753 17.5 229V244C17.5 249.247 21.7533 253.5 27 253.5H211.959C217.206 253.5 221.459 249.247 221.459 244V229C221.459 223.753 217.206 219.5 211.959 219.5Z" stroke="#D7E6F7"/>
<path d="M38.3035 230.197L32 236.5L38.3035 242.803" stroke="#878682" stroke-width="2" stroke-miterlimit="10"/>
<text fill="#282828" style="white-space: pre" xml:space="preserve" font-family="Arimo" font-size="20" font-weight="bold" letter-spacing="0em"><tspan x="62.3037" y="241.868" font-family="Arimo">Apr 2026</tspan></text>
<path d="M170.374 244.279H162.049C161.853 244.278 161.666 244.192 161.527 244.038C161.388 243.885 161.307 243.676 161.303 243.458V230.086C161.303 229.864 161.382 229.652 161.522 229.495C161.661 229.339 161.851 229.251 162.049 229.251H173.971C174.169 229.251 174.358 229.339 174.498 229.495C174.638 229.652 174.716 229.864 174.716 230.086V237.596" stroke="#0757B8" stroke-width="1.5"/>
<path d="M161.303 232.939H174.716" stroke="#0757B8" stroke-width="1.5"/>
<path d="M164.329 229.251V227.574" stroke="#0757B8" stroke-width="1.5"/>
<path d="M171.5 229.251V227.574" stroke="#0757B8" stroke-width="1.5"/>
<path d="M172.936 245.426C174.99 245.426 176.656 243.56 176.656 241.258C176.656 238.956 174.99 237.09 172.936 237.09C170.881 237.09 169.216 238.956 169.216 241.258C169.216 243.56 170.881 245.426 172.936 245.426Z" stroke="#0757B8" stroke-width="1.5"/>
<path d="M172.936 238.327V241.385L174.238 242.505" stroke="#0757B8" stroke-width="1.5"/>
<path d="M200.656 230.197L206.959 236.5L200.656 242.803" stroke="#878682" stroke-width="2" stroke-miterlimit="10"/>
<path d="M277.959 223.5H239.959C237.198 223.5 234.959 225.739 234.959 228.5V244.5C234.959 247.261 237.198 249.5 239.959 249.5H277.959C280.72 249.5 282.959 247.261 282.959 244.5V228.5C282.959 225.739 280.72 223.5 277.959 223.5Z" fill="#F3F6F9"/>
<text fill="#282828" style="white-space: pre" xml:space="preserve" font-family="Arimo" font-size="14" letter-spacing="0em"><tspan x="239.959" y="240.208" font-family="Arimo">Today</tspan></text>
<path d="M487 228.5C487 224.082 490.582 220.5 495 220.5H808C812.418 220.5 816 224.082 816 228.5V244.5C816 248.918 812.418 252.5 808 252.5H495C490.582 252.5 487 248.918 487 244.5V228.5Z" fill="#F8FAFC"/>
<path d="M510 242.5L507.009 239.504M508.667 235.5C508.667 237.003 508.07 238.444 507.007 239.507C505.944 240.57 504.503 241.167 503 241.167C501.497 241.167 500.056 240.57 498.993 239.507C497.93 238.444 497.333 237.003 497.333 235.5C497.333 233.997 497.93 232.556 498.993 231.493C500.056 230.43 501.497 229.833 503 229.833C504.503 229.833 505.944 230.43 507.007 231.493C508.07 232.556 508.667 233.997 508.667 235.5Z" stroke="#878682" stroke-width="1.5" stroke-linecap="round" stroke-linejoin="round"/>
<text fill="#B8C2CC" style="white-space: pre" xml:space="preserve" font-family="Arimo" font-size="14" letter-spacing="0em"><tspan x="520" y="240.208" font-family="Arimo">Search by name, ID, or location</tspan></text>
<path d="M25 273.5H248C252.142 273.5 255.5 276.858 255.5 281V295C255.5 299.142 252.142 302.5 248 302.5H25C20.8579 302.5 17.5 299.142 17.5 295V281C17.5 276.858 20.8579 273.5 25 273.5Z" fill="white"/>
<path d="M25 273.5H248C252.142 273.5 255.5 276.858 255.5 281V295C255.5 299.142 252.142 302.5 248 302.5H25C20.8579 302.5 17.5 299.142 17.5 295V281C17.5 276.858 20.8579 273.5 25 273.5Z" stroke="#D7E6F7"/>
<text fill="#282828" style="white-space: pre" xml:space="preserve" font-family="Arimo" font-size="14" letter-spacing="0em"><tspan x="26" y="291.708" font-family="Arimo">All buildings</tspan></text>
<path d="M243 291L239.536 286.5H246.464L243 291Z" fill="#0757B8"/>
<path d="M527 274H279C276.239 274 274 276.239 274 279V297C274 299.761 276.239 302 279 302H527C529.761 302 532 299.761 532 297V279C532 276.239 529.761 274 527 274Z" fill="#F3F6F9"/>
<path d="M357 279H287C284.239 279 282 281.239 282 284V292C282 294.761 284.239 297 287 297H357C359.761 297 362 294.761 362 292V284C362 281.239 359.761 279 357 279Z" fill="#0757B8"/>
<text fill="white" style="white-space: pre" xml:space="preserve" font-family="Arimo" font-size="12" font-weight="bold" letter-spacing="0em"><tspan x="295.732" y="291.32" font-family="Arimo">All Types</tspan></text>
<path d="M388.875 283.484C388.103 282.593 387.234 281.79 386.284 281.09C386.2 281.032 386.1 281 385.997 281C385.895 281 385.795 281.032 385.711 281.09C384.763 281.79 383.895 282.593 383.125 283.484C381.407 285.457 380.5 287.537 380.5 289.5C380.5 290.959 381.079 292.357 382.111 293.389C383.142 294.42 384.541 295 386 295C387.459 295 388.858 294.42 389.889 293.389C390.921 292.357 391.5 290.959 391.5 289.5C391.5 287.537 390.593 285.457 388.875 283.484ZM389.491 290.084C389.361 290.808 389.013 291.475 388.492 291.995C387.972 292.515 387.305 292.863 386.581 292.993C386.554 292.997 386.527 293 386.5 293C386.375 293 386.254 292.953 386.161 292.868C386.069 292.783 386.012 292.666 386.002 292.541C385.991 292.416 386.028 292.292 386.105 292.193C386.182 292.094 386.294 292.027 386.417 292.007C387.453 291.832 388.332 290.954 388.507 289.916C388.53 289.785 388.603 289.669 388.711 289.592C388.819 289.515 388.954 289.485 389.084 289.507C389.215 289.529 389.332 289.602 389.409 289.71C389.485 289.819 389.516 289.953 389.494 290.084H389.491Z" fill="#0757B8"/>
<text fill="#878682" style="white-space: pre" xml:space="preserve" font-family="Arimo" font-size="12" font-weight="bold" letter-spacing="0em"><tspan x="396.541" y="291.32" font-family="Arimo">Water</tspan></text>
<path d="M466.867 287.843L459.867 295.344C459.792 295.423 459.694 295.476 459.588 295.494C459.481 295.513 459.371 295.496 459.274 295.447C459.177 295.398 459.099 295.318 459.052 295.221C459.005 295.123 458.99 295.013 459.011 294.906L459.927 290.323L456.325 288.97C456.247 288.941 456.179 288.893 456.124 288.831C456.07 288.769 456.031 288.694 456.013 288.614C455.994 288.533 455.996 288.45 456.018 288.37C456.039 288.29 456.08 288.217 456.137 288.157L463.138 280.656C463.212 280.577 463.31 280.524 463.417 280.506C463.524 280.487 463.634 280.504 463.731 280.553C463.827 280.603 463.905 280.682 463.953 280.78C464 280.877 464.015 280.987 463.994 281.094L463.075 285.683L466.677 287.033C466.754 287.063 466.823 287.11 466.877 287.172C466.931 287.234 466.969 287.308 466.987 287.388C467.006 287.468 467.004 287.551 466.983 287.631C466.962 287.71 466.921 287.783 466.865 287.843H466.867Z" fill="#C9A922"/>
<text fill="#878682" style="white-space: pre" xml:space="preserve" font-family="Arimo" font-size="12" font-weight="bold" letter-spacing="0em"><tspan x="472.303" y="291.32" font-family="Arimo">Electric</tspan></text>
<path d="M811 274H555C552.239 274 550 276.239 550 279V297C550 299.761 552.239 302 555 302H811C813.761 302 816 299.761 816 297V279C816 276.239 813.761 274 811 274Z" fill="#F3F6F9"/>
<path d="M633 279H563C560.239 279 558 281.239 558 284V292C558 294.761 560.239 297 563 297H633C635.761 297 638 294.761 638 292V284C638 281.239 635.761 279 633 279Z" fill="#0757B8"/>
<text fill="white" style="white-space: pre" xml:space="preserve" font-family="Arimo" font-size="12" font-weight="bold" letter-spacing="0em"><tspan x="570.309" y="291.32" font-family="Arimo">All Status</tspan></text>
<path d="M718 279H648C645.239 279 643 281.239 643 284V292C643 294.761 645.239 297 648 297H718C720.761 297 723 294.761 723 292V284C723 281.239 720.761 279 718 279Z" fill="#F3F6F9"/>
<text fill="#878682" style="white-space: pre" xml:space="preserve" font-family="Arimo" font-size="12" font-weight="bold" letter-spacing="0em"><tspan x="659.316" y="291.32" font-family="Arimo">Pending</tspan></text>
<path d="M803 279H733C730.239 279 728 281.239 728 284V292C728 294.761 730.239 297 733 297H803C805.761 297 808 294.761 808 292V284C808 281.239 805.761 279 803 279Z" fill="#F3F6F9"/>
<text fill="#878682" style="white-space: pre" xml:space="preserve" font-family="Arimo" font-size="12" font-weight="bold" letter-spacing="0em"><tspan x="738.65" y="291.32" font-family="Arimo">Submitted</tspan></text>
<mask id="mask1_355_1295" style="mask-type:luminance" maskUnits="userSpaceOnUse" x="17" y="326" width="799" height="802">
<path d="M806 326H27C21.4772 326 17 330.477 17 336V1118C17 1123.52 21.4772 1128 27 1128H806C811.523 1128 816 1123.52 816 1118V336C816 330.477 811.523 326 806 326Z" fill="white"/>
</mask>
<g mask="url(#mask1_355_1295)">
<path d="M806 326H27C21.4772 326 17 330.477 17 336V1118C17 1123.52 21.4772 1128 27 1128H806C811.523 1128 816 1123.52 816 1118V336C816 330.477 811.523 326 806 326Z" fill="white"/>
<path d="M816 415H17V669H816V415Z" fill="#FFF4F4"/>
<path d="M816 726H17V829H816V726Z" fill="#FFF4F4"/>
<path d="M816 933H17V1036H816V933Z" fill="#FFF4F4"/>
<path d="M816 1089H17V1192H816V1089Z" fill="white"/>
<path d="M17 468H816V519H17V468Z" fill="#EBF7FF"/>
<mask id="mask2_355_1295" style="mask-type:luminance" maskUnits="userSpaceOnUse" x="17" y="468" width="799" height="51">
<path d="M17 468H816V519H17V468Z" fill="white"/>
</mask>
<g mask="url(#mask2_355_1295)">
<path d="M17 468V469H816V468V467H17V468ZM816 519V518H17V519V520H816V519Z" fill="#D7E6F7"/>
</g>
<text fill="#6F6F6F" style="white-space: pre" xml:space="preserve" font-family="Arimo" font-size="12" letter-spacing="0em"><tspan x="36" y="351.024" font-family="Arimo">Meter input status</tspan></text>
<text fill="#6F6F6F" style="white-space: pre" xml:space="preserve" font-family="Arimo" font-size="12" letter-spacing="0em"><tspan x="164" y="351.024" font-family="Arimo">Building</tspan></text>
<text fill="#6F6F6F" style="white-space: pre" xml:space="preserve" font-family="Arimo" font-size="12" letter-spacing="0em"><tspan x="244" y="351.024" font-family="Arimo">Location</tspan></text>
<text fill="#6F6F6F" style="white-space: pre" xml:space="preserve" font-family="Arimo" font-size="12" letter-spacing="0em"><tspan x="329" y="351.024" font-family="Arimo">Sub-Location</tspan></text>
<text fill="#6F6F6F" style="white-space: pre" xml:space="preserve" font-family="Arimo" font-size="12" letter-spacing="0em"><tspan x="445" y="351.024" font-family="Arimo">Type</tspan></text>
<text fill="#878682" style="white-space: pre" xml:space="preserve" font-family="Arimo" font-size="12" letter-spacing="0em"><tspan x="543" y="351.32" font-family="Arimo">Past Value</tspan></text>
<text fill="#878682" style="white-space: pre" xml:space="preserve" font-family="Arimo" font-size="12" letter-spacing="0em"><tspan x="664" y="351.32" font-family="Arimo">Current Value</tspan></text>
<path d="M816 362H17V415H816V362Z" fill="white"/>
<path d="M114 378.5H46C40.7533 378.5 36.5 382.753 36.5 388V390C36.5 395.247 40.7533 399.5 46 399.5H114C119.247 399.5 123.5 395.247 123.5 390V388C123.5 382.753 119.247 378.5 114 378.5Z" fill="#EBF9E0"/>
<path d="M114 378.5H46C40.7533 378.5 36.5 382.753 36.5 388V390C36.5 395.247 40.7533 399.5 46 399.5H114C119.247 399.5 123.5 395.247 123.5 390V388C123.5 382.753 119.247 378.5 114 378.5Z" stroke="#BEE27B"/>
<text fill="#1E5D18" style="white-space: pre" xml:space="preserve" font-family="Arimo" font-size="12" font-weight="bold" letter-spacing="0em"><tspan x="50.5" y="392.32" font-family="Arimo">Submitted</tspan></text>
<text fill="#282828" style="white-space: pre" xml:space="preserve" font-family="Arimo" font-size="12" letter-spacing="0em"><tspan x="164" y="393.024" font-family="Arimo">616</tspan></text>
<text fill="#282828" style="white-space: pre" xml:space="preserve" font-family="Arimo" font-size="14" letter-spacing="0em"><tspan x="244" y="392.708" font-family="Arimo">Level 1</tspan></text>
<text fill="#282828" style="white-space: pre" xml:space="preserve" font-family="Arimo" font-size="14" letter-spacing="0em"><tspan x="329" y="392.708" font-family="Arimo">Men’s Toilet</tspan></text>
<path d="M503 378.5H455C449.753 378.5 445.5 382.753 445.5 388V390C445.5 395.247 449.753 399.5 455 399.5H503C508.247 399.5 512.5 395.247 512.5 390V388C512.5 382.753 508.247 378.5 503 378.5Z" fill="#EAF3FB"/>
<path d="M503 378.5H455C449.753 378.5 445.5 382.753 445.5 388V390C445.5 395.247 449.753 399.5 455 399.5H503C508.247 399.5 512.5 395.247 512.5 390V388C512.5 382.753 508.247 378.5 503 378.5Z" stroke="#ADCEFF"/>
<path d="M462.259 385.452C461.652 384.751 460.97 384.121 460.223 383.571C460.157 383.525 460.079 383.5 459.998 383.5C459.917 383.5 459.839 383.525 459.773 383.571C459.028 384.121 458.346 384.752 457.741 385.452C456.391 387.002 455.678 388.637 455.678 390.179C455.678 391.325 456.134 392.424 456.944 393.234C457.755 394.045 458.854 394.5 460 394.5C461.146 394.5 462.245 394.045 463.056 393.234C463.866 392.424 464.321 391.325 464.321 390.179C464.321 388.637 463.609 387.002 462.259 385.452ZM462.743 390.637C462.641 391.206 462.367 391.73 461.958 392.139C461.549 392.548 461.025 392.821 460.456 392.923C460.435 392.927 460.414 392.928 460.393 392.929C460.294 392.929 460.199 392.891 460.127 392.825C460.054 392.758 460.01 392.666 460.001 392.568C459.993 392.47 460.022 392.372 460.083 392.295C460.143 392.217 460.231 392.165 460.328 392.148C461.142 392.011 461.832 391.321 461.97 390.506C461.988 390.403 462.045 390.311 462.13 390.251C462.215 390.191 462.321 390.166 462.423 390.184C462.526 390.201 462.618 390.259 462.678 390.344C462.738 390.429 462.763 390.534 462.745 390.637H462.743Z" fill="#0757B8"/>
<text fill="#0757B8" style="white-space: pre" xml:space="preserve" font-family="Arimo" font-size="12" font-weight="bold" letter-spacing="0em"><tspan x="469.322" y="392.32" font-family="Arimo">Water</tspan></text>
<text fill="#282828" style="white-space: pre" xml:space="preserve" font-family="Arimo" font-size="14" letter-spacing="0em"><tspan x="543" y="384.708" font-family="Arimo">4,286.4 m³</tspan></text>
<text fill="#878682" style="white-space: pre" xml:space="preserve" font-family="Arimo" font-size="10" font-style="italic" letter-spacing="0em"><tspan x="543" y="401.934" font-family="Arimo">18 Feb 2026, 2.35pm</tspan></text>
<text fill="#282828" style="white-space: pre" xml:space="preserve" font-family="Arimo" font-size="14" letter-spacing="0em"><tspan x="664" y="384.708" font-family="Arimo">4,315.8 m³</tspan></text>
<text fill="#878682" style="white-space: pre" xml:space="preserve" font-family="Arimo" font-size="10" font-style="italic" letter-spacing="0em"><tspan x="664" y="401.934" font-family="Arimo">9 Apr 2026, 3.21pm</tspan></text>
<rect x="36.5" y="429.5" width="87" height="21" rx="9.5" fill="#FFEBEC"/>
<rect x="36.5" y="429.5" width="87" height="21" rx="9.5" stroke="#FFC4C4"/>
<text fill="#E15C5C" style="white-space: pre" xml:space="preserve" font-family="Arimo" font-size="12" font-weight="bold" letter-spacing="0em"><tspan x="56" y="444.16" font-family="Arimo">Pending</tspan></text>
<path d="M114 429.5H46C40.7533 429.5 36.5 433.753 36.5 439V441C36.5 446.247 40.7533 450.5 46 450.5H114C119.247 450.5 123.5 446.247 123.5 441V439C123.5 433.753 119.247 429.5 114 429.5Z" stroke="#D7E6F7"/>
<text fill="#282828" style="white-space: pre" xml:space="preserve" font-family="Arimo" font-size="12" letter-spacing="0em"><tspan x="164" y="444.024" font-family="Arimo">614</tspan></text>
<text fill="#282828" style="white-space: pre" xml:space="preserve" font-family="Arimo" font-size="14" letter-spacing="0em"><tspan x="244" y="443.708" font-family="Arimo">Level 2</tspan></text>
<text fill="#282828" style="white-space: pre" xml:space="preserve" font-family="Arimo" font-size="14" letter-spacing="0em"><tspan x="329" y="443.708" font-family="Arimo">Pantry</tspan></text>
<path d="M503 429.5H455C449.753 429.5 445.5 433.753 445.5 439V441C445.5 446.247 449.753 450.5 455 450.5H503C508.247 450.5 512.5 446.247 512.5 441V439C512.5 433.753 508.247 429.5 503 429.5Z" fill="#FFF3D8"/>
<path d="M503 429.5H455C449.753 429.5 445.5 433.753 445.5 439V441C445.5 446.247 449.753 450.5 455 450.5H503C508.247 450.5 512.5 446.247 512.5 441V439C512.5 433.753 508.247 429.5 503 429.5Z" stroke="#FFE7A8"/>
<path d="M458.435 439.885L453.302 445.384C453.248 445.442 453.176 445.481 453.098 445.495C453.019 445.508 452.939 445.496 452.868 445.46C452.797 445.424 452.74 445.365 452.705 445.294C452.67 445.222 452.66 445.141 452.675 445.063L453.347 441.703L450.706 440.711C450.649 440.69 450.598 440.655 450.558 440.609C450.519 440.564 450.491 440.509 450.477 440.45C450.463 440.391 450.465 440.33 450.48 440.271C450.496 440.213 450.527 440.159 450.568 440.115L455.701 434.616C455.755 434.558 455.827 434.519 455.905 434.505C455.984 434.492 456.065 434.504 456.135 434.54C456.206 434.576 456.263 434.635 456.298 434.706C456.333 434.778 456.344 434.859 456.328 434.937L455.655 438.301L458.296 439.291C458.352 439.313 458.402 439.348 458.442 439.393C458.481 439.438 458.509 439.493 458.523 439.551C458.536 439.61 458.535 439.671 458.52 439.729C458.504 439.787 458.474 439.841 458.433 439.885H458.435Z" fill="#C9A922"/>
<text fill="#B8843E" style="white-space: pre" xml:space="preserve" font-family="Arimo" font-size="12" font-weight="bold" letter-spacing="0em"><tspan x="463.835" y="443.32" font-family="Arimo">Electric</tspan></text>
<text fill="#282828" style="white-space: pre" xml:space="preserve" font-family="Arimo" font-size="14" letter-spacing="0em"><tspan x="543" y="435.708" font-family="Arimo">18,460 kWh</tspan></text>
<text fill="#878682" style="white-space: pre" xml:space="preserve" font-family="Arimo" font-size="10" font-style="italic" letter-spacing="0em"><tspan x="543" y="452.934" font-family="Arimo">18 Feb 2026, 2.35pm</tspan></text>
<text fill="#B8C2CC" style="white-space: pre" xml:space="preserve" font-family="Arimo" font-size="14" letter-spacing="0em"><tspan x="664" y="443.708" font-family="Arimo">None</tspan></text>
<rect x="36.5" y="480.5" width="87" height="21" rx="9.5" fill="#FFEBEC"/>
<rect x="36.5" y="480.5" width="87" height="21" rx="9.5" stroke="#FFC4C4"/>
<text fill="#E15C5C" style="white-space: pre" xml:space="preserve" font-family="Arimo" font-size="12" font-weight="bold" letter-spacing="0em"><tspan x="56" y="495.16" font-family="Arimo">Pending</tspan></text>
<path d="M114 480.5H46C40.7533 480.5 36.5 484.753 36.5 490V492C36.5 497.247 40.7533 501.5 46 501.5H114C119.247 501.5 123.5 497.247 123.5 492V490C123.5 484.753 119.247 480.5 114 480.5Z" stroke="#D7E6F7"/>
<text fill="#282828" style="white-space: pre" xml:space="preserve" font-family="Arimo" font-size="12" letter-spacing="0em"><tspan x="164" y="495.024" font-family="Arimo">620</tspan></text>
<text fill="#282828" style="white-space: pre" xml:space="preserve" font-family="Arimo" font-size="14" letter-spacing="0em"><tspan x="244" y="494.708" font-family="Arimo">Level 3</tspan></text>
<text fill="#282828" style="white-space: pre" xml:space="preserve" font-family="Arimo" font-size="14" letter-spacing="0em"><tspan x="329" y="494.708" font-family="Arimo">AHU Room</tspan></text>
<path d="M503 480.5H455C449.753 480.5 445.5 484.753 445.5 490V492C445.5 497.247 449.753 501.5 455 501.5H503C508.247 501.5 512.5 497.247 512.5 492V490C512.5 484.753 508.247 480.5 503 480.5Z" fill="#FFF3D8"/>
<path d="M503 480.5H455C449.753 480.5 445.5 484.753 445.5 490V492C445.5 497.247 449.753 501.5 455 501.5H503C508.247 501.5 512.5 497.247 512.5 492V490C512.5 484.753 508.247 480.5 503 480.5Z" stroke="#FFE7A8"/>
<path d="M458.435 490.885L453.302 496.384C453.248 496.442 453.176 496.481 453.098 496.495C453.019 496.508 452.939 496.496 452.868 496.46C452.797 496.424 452.74 496.365 452.705 496.294C452.67 496.222 452.66 496.141 452.675 496.063L453.347 492.703L450.706 491.711C450.649 491.69 450.598 491.655 450.558 491.609C450.519 491.564 450.491 491.509 450.477 491.45C450.463 491.391 450.465 491.33 450.48 491.271C450.496 491.213 450.527 491.159 450.568 491.115L455.701 485.616C455.755 485.558 455.827 485.519 455.905 485.505C455.984 485.492 456.065 485.504 456.135 485.54C456.206 485.576 456.263 485.635 456.298 485.706C456.333 485.778 456.344 485.859 456.328 485.937L455.655 489.301L458.296 490.291C458.352 490.313 458.402 490.348 458.442 490.393C458.481 490.438 458.509 490.493 458.523 490.551C458.536 490.61 458.535 490.671 458.52 490.729C458.504 490.787 458.474 490.841 458.433 490.885H458.435Z" fill="#C9A922"/>
<text fill="#B8843E" style="white-space: pre" xml:space="preserve" font-family="Arimo" font-size="12" font-weight="bold" letter-spacing="0em"><tspan x="463.835" y="494.32" font-family="Arimo">Electric</tspan></text>
<text fill="#282828" style="white-space: pre" xml:space="preserve" font-family="Arimo" font-size="14" letter-spacing="0em"><tspan x="543" y="486.708" font-family="Arimo">22,180 kWh</tspan></text>
<text fill="#878682" style="white-space: pre" xml:space="preserve" font-family="Arimo" font-size="10" font-style="italic" letter-spacing="0em"><tspan x="543" y="503.934" font-family="Arimo">12 Aug 2026, 9.10am</tspan></text>
<text fill="#B8C2CC" style="white-space: pre" xml:space="preserve" font-family="Arimo" font-size="14" letter-spacing="0em"><tspan x="664" y="497.708" font-family="Arimo">None</tspan></text>
<path d="M114 531.5H46C40.7533 531.5 36.5 535.753 36.5 541V543C36.5 548.247 40.7533 552.5 46 552.5H114C119.247 552.5 123.5 548.247 123.5 543V541C123.5 535.753 119.247 531.5 114 531.5Z" fill="#EFF6FF"/>
<rect x="36.5" y="531.5" width="87" height="21" rx="9.5" fill="#FFEBEC"/>
<rect x="36.5" y="531.5" width="87" height="21" rx="9.5" stroke="#FFC4C4"/>
<text fill="#E15C5C" style="white-space: pre" xml:space="preserve" font-family="Arimo" font-size="12" font-weight="bold" letter-spacing="0em"><tspan x="56" y="546.16" font-family="Arimo">Pending</tspan></text>
<text fill="#282828" style="white-space: pre" xml:space="preserve" font-family="Arimo" font-size="12" letter-spacing="0em"><tspan x="164" y="545.024" font-family="Arimo">612</tspan></text>
<text fill="#282828" style="white-space: pre" xml:space="preserve" font-family="Arimo" font-size="14" letter-spacing="0em"><tspan x="244" y="545.708" font-family="Arimo">Level 1</tspan></text>
<text fill="#282828" style="white-space: pre" xml:space="preserve" font-family="Arimo" font-size="14" letter-spacing="0em"><tspan x="329" y="545.708" font-family="Arimo">Women’s Toilet</tspan></text>
<path d="M503 531.5H455C449.753 531.5 445.5 535.753 445.5 541V543C445.5 548.247 449.753 552.5 455 552.5H503C508.247 552.5 512.5 548.247 512.5 543V541C512.5 535.753 508.247 531.5 503 531.5Z" fill="#EAF3FB"/>
<path d="M503 531.5H455C449.753 531.5 445.5 535.753 445.5 541V543C445.5 548.247 449.753 552.5 455 552.5H503C508.247 552.5 512.5 548.247 512.5 543V541C512.5 535.753 508.247 531.5 503 531.5Z" stroke="#ADCEFF"/>
<path d="M462.259 538.452C461.652 537.751 460.97 537.121 460.223 536.571C460.157 536.525 460.079 536.5 459.998 536.5C459.917 536.5 459.839 536.525 459.773 536.571C459.028 537.121 458.346 537.752 457.741 538.452C456.391 540.002 455.678 541.637 455.678 543.179C455.678 544.325 456.134 545.424 456.944 546.234C457.755 547.045 458.854 547.5 460 547.5C461.146 547.5 462.245 547.045 463.056 546.234C463.866 545.424 464.321 544.325 464.321 543.179C464.321 541.637 463.609 540.002 462.259 538.452ZM462.743 543.637C462.641 544.206 462.367 544.73 461.958 545.139C461.549 545.548 461.025 545.821 460.456 545.923C460.435 545.927 460.414 545.928 460.393 545.929C460.294 545.929 460.199 545.891 460.127 545.825C460.054 545.758 460.01 545.666 460.001 545.568C459.993 545.47 460.022 545.372 460.083 545.295C460.143 545.217 460.231 545.165 460.328 545.148C461.142 545.011 461.832 544.321 461.97 543.506C461.988 543.403 462.045 543.311 462.13 543.251C462.215 543.191 462.321 543.166 462.423 543.184C462.526 543.201 462.618 543.259 462.678 543.344C462.738 543.429 462.763 543.534 462.745 543.637H462.743Z" fill="#0757B8"/>
<text fill="#0757B8" style="white-space: pre" xml:space="preserve" font-family="Arimo" font-size="12" font-weight="bold" letter-spacing="0em"><tspan x="469.322" y="545.32" font-family="Arimo">Water</tspan></text>
<text fill="#282828" style="white-space: pre" xml:space="preserve" font-family="Arimo" font-size="14" letter-spacing="0em"><tspan x="543" y="537.708" font-family="Arimo">3,985.2 m³</tspan></text>
<text fill="#878682" style="white-space: pre" xml:space="preserve" font-family="Arimo" font-size="10" font-style="italic" letter-spacing="0em"><tspan x="543" y="554.934" font-family="Arimo">11 Mar 2026, 11.40am</tspan></text>
<text fill="#B8C2CC" style="white-space: pre" xml:space="preserve" font-family="Arimo" font-size="14" letter-spacing="0em"><tspan x="664" y="545.708" font-family="Arimo">None</tspan></text>
<path d="M114 582.5H46C40.7533 582.5 36.5 586.753 36.5 592V594C36.5 599.247 40.7533 603.5 46 603.5H114C119.247 603.5 123.5 599.247 123.5 594V592C123.5 586.753 119.247 582.5 114 582.5Z" fill="#EFF6FF"/>
<rect x="36.5" y="582.5" width="87" height="21" rx="9.5" fill="#FFEBEC"/>
<rect x="36.5" y="582.5" width="87" height="21" rx="9.5" stroke="#FFC4C4"/>
<text fill="#E15C5C" style="white-space: pre" xml:space="preserve" font-family="Arimo" font-size="12" font-weight="bold" letter-spacing="0em"><tspan x="56" y="597.16" font-family="Arimo">Pending</tspan></text>
<text fill="#282828" style="white-space: pre" xml:space="preserve" font-family="Arimo" font-size="12" letter-spacing="0em"><tspan x="164" y="597.024" font-family="Arimo">618</tspan></text>
<text fill="#282828" style="white-space: pre" xml:space="preserve" font-family="Arimo" font-size="14" letter-spacing="0em"><tspan x="244" y="596.708" font-family="Arimo">Ground Floor</tspan></text>
<text fill="#282828" style="white-space: pre" xml:space="preserve" font-family="Arimo" font-size="14" letter-spacing="0em"><tspan x="329" y="596.708" font-family="Arimo">Main Lobby</tspan></text>
<path d="M503 582.5H455C449.753 582.5 445.5 586.753 445.5 592V594C445.5 599.247 449.753 603.5 455 603.5H503C508.247 603.5 512.5 599.247 512.5 594V592C512.5 586.753 508.247 582.5 503 582.5Z" fill="#FFF3D8"/>
<path d="M503 582.5H455C449.753 582.5 445.5 586.753 445.5 592V594C445.5 599.247 449.753 603.5 455 603.5H503C508.247 603.5 512.5 599.247 512.5 594V592C512.5 586.753 508.247 582.5 503 582.5Z" stroke="#FFE7A8"/>
<path d="M458.435 592.885L453.302 598.384C453.248 598.442 453.176 598.481 453.098 598.495C453.019 598.508 452.939 598.496 452.868 598.46C452.797 598.424 452.74 598.365 452.705 598.294C452.67 598.222 452.66 598.141 452.675 598.063L453.347 594.703L450.706 593.711C450.649 593.69 450.598 593.655 450.558 593.609C450.519 593.564 450.491 593.509 450.477 593.45C450.463 593.391 450.465 593.33 450.48 593.271C450.496 593.213 450.527 593.159 450.568 593.115L455.701 587.616C455.755 587.558 455.827 587.519 455.905 587.505C455.984 587.492 456.065 587.504 456.135 587.54C456.206 587.576 456.263 587.635 456.298 587.706C456.333 587.778 456.344 587.859 456.328 587.937L455.655 591.301L458.296 592.291C458.352 592.313 458.402 592.348 458.442 592.393C458.481 592.438 458.509 592.493 458.523 592.551C458.536 592.61 458.535 592.671 458.52 592.729C458.504 592.787 458.474 592.841 458.433 592.885H458.435Z" fill="#C9A922"/>
<text fill="#B8843E" style="white-space: pre" xml:space="preserve" font-family="Arimo" font-size="12" font-weight="bold" letter-spacing="0em"><tspan x="463.835" y="596.32" font-family="Arimo">Electric</tspan></text>
<text fill="#282828" style="white-space: pre" xml:space="preserve" font-family="Arimo" font-size="14" letter-spacing="0em"><tspan x="543" y="588.708" font-family="Arimo">9,845 kWh</tspan></text>
<text fill="#878682" style="white-space: pre" xml:space="preserve" font-family="Arimo" font-size="10" font-style="italic" letter-spacing="0em"><tspan x="543" y="605.934" font-family="Arimo">3 Jul 2026, 5.05pm</tspan></text>
<text fill="#B8C2CC" style="white-space: pre" xml:space="preserve" font-family="Arimo" font-size="14" letter-spacing="0em"><tspan x="664" y="596.708" font-family="Arimo">None</tspan></text>
<rect x="36.5" y="633.5" width="87" height="21" rx="9.5" fill="#FFEBEC"/>
<rect x="36.5" y="633.5" width="87" height="21" rx="9.5" stroke="#FFC4C4"/>
<text fill="#E15C5C" style="white-space: pre" xml:space="preserve" font-family="Arimo" font-size="12" font-weight="bold" letter-spacing="0em"><tspan x="56" y="648.16" font-family="Arimo">Pending</tspan></text>
<path d="M114 633.5H46C40.7533 633.5 36.5 637.753 36.5 643V645C36.5 650.247 40.7533 654.5 46 654.5H114C119.247 654.5 123.5 650.247 123.5 645V643C123.5 637.753 119.247 633.5 114 633.5Z" stroke="#D7E6F7"/>
<text fill="#282828" style="white-space: pre" xml:space="preserve" font-family="Arimo" font-size="12" letter-spacing="0em"><tspan x="164" y="648.024" font-family="Arimo">605</tspan></text>
<text fill="#282828" style="white-space: pre" xml:space="preserve" font-family="Arimo" font-size="14" letter-spacing="0em"><tspan x="244" y="647.708" font-family="Arimo">Level 2</tspan></text>
<text fill="#282828" style="white-space: pre" xml:space="preserve" font-family="Arimo" font-size="14" letter-spacing="0em"><tspan x="329" y="647.708" font-family="Arimo">Wash Bay</tspan></text>
<path d="M503 633.5H455C449.753 633.5 445.5 637.753 445.5 643V645C445.5 650.247 449.753 654.5 455 654.5H503C508.247 654.5 512.5 650.247 512.5 645V643C512.5 637.753 508.247 633.5 503 633.5Z" fill="#FFF3D8"/>
<path d="M503 633.5H455C449.753 633.5 445.5 637.753 445.5 643V645C445.5 650.247 449.753 654.5 455 654.5H503C508.247 654.5 512.5 650.247 512.5 645V643C512.5 637.753 508.247 633.5 503 633.5Z" stroke="#FFE7A8"/>
<path d="M458.435 643.885L453.302 649.384C453.248 649.442 453.176 649.481 453.098 649.495C453.019 649.508 452.939 649.496 452.868 649.46C452.797 649.424 452.74 649.365 452.705 649.294C452.67 649.222 452.66 649.141 452.675 649.063L453.347 645.703L450.706 644.711C450.649 644.69 450.598 644.655 450.558 644.609C450.519 644.564 450.491 644.509 450.477 644.45C450.463 644.391 450.465 644.33 450.48 644.271C450.496 644.213 450.527 644.159 450.568 644.115L455.701 638.616C455.755 638.558 455.827 638.519 455.905 638.505C455.984 638.492 456.065 638.504 456.135 638.54C456.206 638.576 456.263 638.635 456.298 638.706C456.333 638.778 456.344 638.859 456.328 638.937L455.655 642.301L458.296 643.291C458.352 643.313 458.402 643.348 458.442 643.393C458.481 643.438 458.509 643.493 458.523 643.551C458.536 643.61 458.535 643.671 458.52 643.729C458.504 643.787 458.474 643.841 458.433 643.885H458.435Z" fill="#C9A922"/>
<text fill="#B8843E" style="white-space: pre" xml:space="preserve" font-family="Arimo" font-size="12" font-weight="bold" letter-spacing="0em"><tspan x="463.835" y="647.32" font-family="Arimo">Electric</tspan></text>
<text fill="#282828" style="white-space: pre" xml:space="preserve" font-family="Arimo" font-size="14" letter-spacing="0em"><tspan x="543" y="639.708" font-family="Arimo">2,148.6 m³</tspan></text>
<text fill="#878682" style="white-space: pre" xml:space="preserve" font-family="Arimo" font-size="10" font-style="italic" letter-spacing="0em"><tspan x="543" y="656.934" font-family="Arimo">25 Jul 2026, 8.25am</tspan></text>
<text fill="#B8C2CC" style="white-space: pre" xml:space="preserve" font-family="Arimo" font-size="14" letter-spacing="0em"><tspan x="664" y="647.708" font-family="Arimo">None</tspan></text>
<path d="M114 686.5H46C40.7533 686.5 36.5 690.753 36.5 696V698C36.5 703.247 40.7533 707.5 46 707.5H114C119.247 707.5 123.5 703.247 123.5 698V696C123.5 690.753 119.247 686.5 114 686.5Z" fill="#EBF9E0"/>
<path d="M114 686.5H46C40.7533 686.5 36.5 690.753 36.5 696V698C36.5 703.247 40.7533 707.5 46 707.5H114C119.247 707.5 123.5 703.247 123.5 698V696C123.5 690.753 119.247 686.5 114 686.5Z" stroke="#BEE27B"/>
<text fill="#1E5D18" style="white-space: pre" xml:space="preserve" font-family="Arimo" font-size="12" font-weight="bold" letter-spacing="0em"><tspan x="50.5" y="700.32" font-family="Arimo">Submitted</tspan></text>
<text fill="#282828" style="white-space: pre" xml:space="preserve" font-family="Arimo" font-size="12" letter-spacing="0em"><tspan x="164" y="700.024" font-family="Arimo">622</tspan></text>
<text fill="#282828" style="white-space: pre" xml:space="preserve" font-family="Arimo" font-size="14" letter-spacing="0em"><tspan x="244" y="700.708" font-family="Arimo">Level 4</tspan></text>
<text fill="#282828" style="white-space: pre" xml:space="preserve" font-family="Arimo" font-size="14" letter-spacing="0em"><tspan x="329" y="700.708" font-family="Arimo">Cooling Tower</tspan></text>
<path d="M503 686.5H455C449.753 686.5 445.5 690.753 445.5 696V698C445.5 703.247 449.753 707.5 455 707.5H503C508.247 707.5 512.5 703.247 512.5 698V696C512.5 690.753 508.247 686.5 503 686.5Z" fill="#EAF3FB"/>
<path d="M503 686.5H455C449.753 686.5 445.5 690.753 445.5 696V698C445.5 703.247 449.753 707.5 455 707.5H503C508.247 707.5 512.5 703.247 512.5 698V696C512.5 690.753 508.247 686.5 503 686.5Z" stroke="#ADCEFF"/>
<path d="M462.259 693.452C461.652 692.751 460.97 692.121 460.223 691.571C460.157 691.525 460.079 691.5 459.998 691.5C459.917 691.5 459.839 691.525 459.773 691.571C459.028 692.121 458.346 692.752 457.741 693.452C456.391 695.002 455.678 696.637 455.678 698.179C455.678 699.325 456.134 700.424 456.944 701.234C457.755 702.045 458.854 702.5 460 702.5C461.146 702.5 462.245 702.045 463.056 701.234C463.866 700.424 464.321 699.325 464.321 698.179C464.321 696.637 463.609 695.002 462.259 693.452ZM462.743 698.637C462.641 699.206 462.367 699.73 461.958 700.139C461.549 700.548 461.025 700.821 460.456 700.923C460.435 700.927 460.414 700.928 460.393 700.929C460.294 700.929 460.199 700.891 460.127 700.825C460.054 700.758 460.01 700.666 460.001 700.568C459.993 700.47 460.022 700.372 460.083 700.295C460.143 700.217 460.231 700.165 460.328 700.148C461.142 700.011 461.832 699.321 461.97 698.506C461.988 698.403 462.045 698.311 462.13 698.251C462.215 698.191 462.321 698.166 462.423 698.184C462.526 698.201 462.618 698.259 462.678 698.344C462.738 698.429 462.763 698.534 462.745 698.637H462.743Z" fill="#0757B8"/>
<text fill="#0757B8" style="white-space: pre" xml:space="preserve" font-family="Arimo" font-size="12" font-weight="bold" letter-spacing="0em"><tspan x="469.322" y="700.32" font-family="Arimo">Water</tspan></text>
<text fill="#282828" style="white-space: pre" xml:space="preserve" font-family="Arimo" font-size="14" letter-spacing="0em"><tspan x="543" y="692.708" font-family="Arimo">6,512.0 m³</tspan></text>
<text fill="#878682" style="white-space: pre" xml:space="preserve" font-family="Arimo" font-size="10" font-style="italic" letter-spacing="0em"><tspan x="543" y="709.934" font-family="Arimo">21 Aug 2026, 1.12pm</tspan></text>
<text fill="#282828" style="white-space: pre" xml:space="preserve" font-family="Arimo" font-size="14" letter-spacing="0em"><tspan x="664" y="690.708" font-family="Arimo">6,544.7 m³</tspan></text>
<text fill="#878682" style="white-space: pre" xml:space="preserve" font-family="Arimo" font-size="10" font-style="italic" letter-spacing="0em"><tspan x="664" y="710.934" font-family="Arimo">24 Aug 2026, 4.48pm</tspan></text>
<path d="M114 896.5H46C40.7533 896.5 36.5 900.753 36.5 906V908C36.5 913.247 40.7533 917.5 46 917.5H114C119.247 917.5 123.5 913.247 123.5 908V906C123.5 900.753 119.247 896.5 114 896.5Z" fill="#EBF9E0"/>
<path d="M114 896.5H46C40.7533 896.5 36.5 900.753 36.5 906V908C36.5 913.247 40.7533 917.5 46 917.5H114C119.247 917.5 123.5 913.247 123.5 908V906C123.5 900.753 119.247 896.5 114 896.5Z" stroke="#BEE27B"/>
<text fill="#1E5D18" style="white-space: pre" xml:space="preserve" font-family="Arimo" font-size="12" font-weight="bold" letter-spacing="0em"><tspan x="50.5" y="910.32" font-family="Arimo">Submitted</tspan></text>
<text fill="#282828" style="white-space: pre" xml:space="preserve" font-family="Arimo" font-size="12" letter-spacing="0em"><tspan x="164" y="910.024" font-family="Arimo">610</tspan></text>
<text fill="#282828" style="white-space: pre" xml:space="preserve" font-family="Arimo" font-size="14" letter-spacing="0em"><tspan x="244" y="910.708" font-family="Arimo">Level 3</tspan></text>
<text fill="#282828" style="white-space: pre" xml:space="preserve" font-family="Arimo" font-size="14" letter-spacing="0em"><tspan x="329" y="910.708" font-family="Arimo">Server Room</tspan></text>
<path d="M503 896.5H455C449.753 896.5 445.5 900.753 445.5 906V908C445.5 913.247 449.753 917.5 455 917.5H503C508.247 917.5 512.5 913.247 512.5 908V906C512.5 900.753 508.247 896.5 503 896.5Z" fill="#EAF3FB"/>
<path d="M503 896.5H455C449.753 896.5 445.5 900.753 445.5 906V908C445.5 913.247 449.753 917.5 455 917.5H503C508.247 917.5 512.5 913.247 512.5 908V906C512.5 900.753 508.247 896.5 503 896.5Z" stroke="#ADCEFF"/>
<path d="M462.259 903.452C461.652 902.751 460.97 902.121 460.223 901.571C460.157 901.525 460.079 901.5 459.998 901.5C459.917 901.5 459.839 901.525 459.773 901.571C459.028 902.121 458.346 902.752 457.741 903.452C456.391 905.002 455.678 906.637 455.678 908.179C455.678 909.325 456.134 910.424 456.944 911.234C457.755 912.045 458.854 912.5 460 912.5C461.146 912.5 462.245 912.045 463.056 911.234C463.866 910.424 464.321 909.325 464.321 908.179C464.321 906.637 463.609 905.002 462.259 903.452ZM462.743 908.637C462.641 909.206 462.367 909.73 461.958 910.139C461.549 910.548 461.025 910.821 460.456 910.923C460.435 910.927 460.414 910.928 460.393 910.929C460.294 910.929 460.199 910.891 460.127 910.825C460.054 910.758 460.01 910.666 460.001 910.568C459.993 910.47 460.022 910.372 460.083 910.295C460.143 910.217 460.231 910.165 460.328 910.148C461.142 910.011 461.832 909.321 461.97 908.506C461.988 908.403 462.045 908.311 462.13 908.251C462.215 908.191 462.321 908.166 462.423 908.184C462.526 908.201 462.618 908.259 462.678 908.344C462.738 908.429 462.763 908.534 462.745 908.637H462.743Z" fill="#0757B8"/>
<text fill="#0757B8" style="white-space: pre" xml:space="preserve" font-family="Arimo" font-size="12" font-weight="bold" letter-spacing="0em"><tspan x="469.322" y="910.32" font-family="Arimo">Water</tspan></text>
<text fill="#282828" style="white-space: pre" xml:space="preserve" font-family="Arimo" font-size="14" letter-spacing="0em"><tspan x="543" y="902.708" font-family="Arimo">27,310 kWh</tspan></text>
<text fill="#878682" style="white-space: pre" xml:space="preserve" font-family="Arimo" font-size="10" font-style="italic" letter-spacing="0em"><tspan x="543" y="919.934" font-family="Arimo">14 Jul 2026, 6.18pm</tspan></text>
<text fill="#282828" style="white-space: pre" xml:space="preserve" font-family="Arimo" font-size="14" letter-spacing="0em"><tspan x="664" y="900.708" font-family="Arimo">None</tspan></text>
<text fill="#878682" style="white-space: pre" xml:space="preserve" font-family="Arimo" font-size="10" font-style="italic" letter-spacing="0em"><tspan x="664" y="920.934" font-family="Arimo">9 Apr 2026, 3.21pm</tspan></text>
<rect x="36.5" y="948.5" width="87" height="21" rx="9.5" fill="#FFEBEC"/>
<rect x="36.5" y="948.5" width="87" height="21" rx="9.5" stroke="#FFC4C4"/>
<text fill="#E15C5C" style="white-space: pre" xml:space="preserve" font-family="Arimo" font-size="12" font-weight="bold" letter-spacing="0em"><tspan x="56" y="963.16" font-family="Arimo">Pending</tspan></text>
<path d="M114 948.5H46C40.7533 948.5 36.5 952.753 36.5 958V960C36.5 965.247 40.7533 969.5 46 969.5H114C119.247 969.5 123.5 965.247 123.5 960V958C123.5 952.753 119.247 948.5 114 948.5Z" stroke="#D7E6F7"/>
<text fill="#282828" style="white-space: pre" xml:space="preserve" font-family="Arimo" font-size="12" letter-spacing="0em"><tspan x="164" y="963.024" font-family="Arimo">624</tspan></text>
<text fill="#282828" style="white-space: pre" xml:space="preserve" font-family="Arimo" font-size="14" letter-spacing="0em"><tspan x="244" y="962.708" font-family="Arimo">Level 2</tspan></text>
<text fill="#282828" style="white-space: pre" xml:space="preserve" font-family="Arimo" font-size="14" letter-spacing="0em"><tspan x="329" y="962.708" font-family="Arimo">Utility Corridor</tspan></text>
<path d="M503 948.5H455C449.753 948.5 445.5 952.753 445.5 958V960C445.5 965.247 449.753 969.5 455 969.5H503C508.247 969.5 512.5 965.247 512.5 960V958C512.5 952.753 508.247 948.5 503 948.5Z" fill="#FFF3D8"/>
<path d="M503 948.5H455C449.753 948.5 445.5 952.753 445.5 958V960C445.5 965.247 449.753 969.5 455 969.5H503C508.247 969.5 512.5 965.247 512.5 960V958C512.5 952.753 508.247 948.5 503 948.5Z" stroke="#FFE7A8"/>
<path d="M458.435 958.885L453.302 964.384C453.248 964.442 453.176 964.481 453.098 964.495C453.019 964.508 452.939 964.496 452.868 964.46C452.797 964.424 452.74 964.365 452.705 964.294C452.67 964.222 452.66 964.141 452.675 964.063L453.347 960.703L450.706 959.711C450.649 959.69 450.598 959.655 450.558 959.609C450.519 959.564 450.491 959.509 450.477 959.45C450.463 959.391 450.465 959.33 450.48 959.271C450.496 959.213 450.527 959.159 450.568 959.115L455.701 953.616C455.755 953.558 455.827 953.519 455.905 953.505C455.984 953.492 456.065 953.504 456.135 953.54C456.206 953.576 456.263 953.635 456.298 953.706C456.333 953.778 456.344 953.859 456.328 953.937L455.655 957.301L458.296 958.291C458.352 958.313 458.402 958.348 458.442 958.393C458.481 958.438 458.509 958.493 458.523 958.551C458.536 958.61 458.535 958.671 458.52 958.729C458.504 958.787 458.474 958.841 458.433 958.885H458.435Z" fill="#C9A922"/>
<text fill="#B8843E" style="white-space: pre" xml:space="preserve" font-family="Arimo" font-size="12" font-weight="bold" letter-spacing="0em"><tspan x="463.835" y="962.32" font-family="Arimo">Electric</tspan></text>
<text fill="#282828" style="white-space: pre" xml:space="preserve" font-family="Arimo" font-size="14" letter-spacing="0em"><tspan x="543" y="954.708" font-family="Arimo">14,782 kWh</tspan></text>
<text fill="#878682" style="white-space: pre" xml:space="preserve" font-family="Arimo" font-size="10" font-style="italic" letter-spacing="0em"><tspan x="543" y="971.934" font-family="Arimo">2 Aug 2026, 9.41am</tspan></text>
<text fill="#B8C2CC" style="white-space: pre" xml:space="preserve" font-family="Arimo" font-size="14" letter-spacing="0em"><tspan x="664" y="962.708" font-family="Arimo">None</tspan></text>
<path d="M114 738.5H46C40.7533 738.5 36.5 742.753 36.5 748V750C36.5 755.247 40.7533 759.5 46 759.5H114C119.247 759.5 123.5 755.247 123.5 750V748C123.5 742.753 119.247 738.5 114 738.5Z" fill="#EFF6FF"/>
<rect x="36.5" y="738.5" width="87" height="21" rx="9.5" fill="#FFEBEC"/>
<rect x="36.5" y="738.5" width="87" height="21" rx="9.5" stroke="#FFC4C4"/>
<text fill="#E15C5C" style="white-space: pre" xml:space="preserve" font-family="Arimo" font-size="12" font-weight="bold" letter-spacing="0em"><tspan x="56" y="753.16" font-family="Arimo">Pending</tspan></text>
<text fill="#282828" style="white-space: pre" xml:space="preserve" font-family="Arimo" font-size="12" letter-spacing="0em"><tspan x="164" y="753.024" font-family="Arimo">608</tspan></text>
<text fill="#282828" style="white-space: pre" xml:space="preserve" font-family="Arimo" font-size="14" letter-spacing="0em"><tspan x="244" y="752.708" font-family="Arimo">Basement 1</tspan></text>
<text fill="#282828" style="white-space: pre" xml:space="preserve" font-family="Arimo" font-size="14" letter-spacing="0em"><tspan x="329" y="752.708" font-family="Arimo">Pump Room</tspan></text>
<path d="M503 738.5H455C449.753 738.5 445.5 742.753 445.5 748V750C445.5 755.247 449.753 759.5 455 759.5H503C508.247 759.5 512.5 755.247 512.5 750V748C512.5 742.753 508.247 738.5 503 738.5Z" fill="#FFF3D8"/>
<path d="M503 738.5H455C449.753 738.5 445.5 742.753 445.5 748V750C445.5 755.247 449.753 759.5 455 759.5H503C508.247 759.5 512.5 755.247 512.5 750V748C512.5 742.753 508.247 738.5 503 738.5Z" stroke="#FFE7A8"/>
<path d="M458.435 748.885L453.302 754.384C453.248 754.442 453.176 754.481 453.098 754.495C453.019 754.508 452.939 754.496 452.868 754.46C452.797 754.424 452.74 754.365 452.705 754.294C452.67 754.222 452.66 754.141 452.675 754.063L453.347 750.703L450.706 749.711C450.649 749.69 450.598 749.655 450.558 749.609C450.519 749.564 450.491 749.509 450.477 749.45C450.463 749.391 450.465 749.33 450.48 749.271C450.496 749.213 450.527 749.159 450.568 749.115L455.701 743.616C455.755 743.558 455.827 743.519 455.905 743.505C455.984 743.492 456.065 743.504 456.135 743.54C456.206 743.576 456.263 743.635 456.298 743.706C456.333 743.778 456.344 743.859 456.328 743.937L455.655 747.301L458.296 748.291C458.352 748.313 458.402 748.348 458.442 748.393C458.481 748.438 458.509 748.493 458.523 748.551C458.536 748.61 458.535 748.671 458.52 748.729C458.504 748.787 458.474 748.841 458.433 748.885H458.435Z" fill="#C9A922"/>
<text fill="#B8843E" style="white-space: pre" xml:space="preserve" font-family="Arimo" font-size="12" font-weight="bold" letter-spacing="0em"><tspan x="463.835" y="752.32" font-family="Arimo">Electric</tspan></text>
<text fill="#282828" style="white-space: pre" xml:space="preserve" font-family="Arimo" font-size="14" letter-spacing="0em"><tspan x="543" y="744.708" font-family="Arimo">11,905 kWh</tspan></text>
<text fill="#878682" style="white-space: pre" xml:space="preserve" font-family="Arimo" font-size="10" font-style="italic" letter-spacing="0em"><tspan x="543" y="761.934" font-family="Arimo">28 Jun 2026, 10.16am</tspan></text>
<text fill="#B8C2CC" style="white-space: pre" xml:space="preserve" font-family="Arimo" font-size="14" letter-spacing="0em"><tspan x="664" y="752.708" font-family="Arimo">None</tspan></text>
<rect x="36.5" y="999.5" width="87" height="21" rx="9.5" fill="#FFEBEC"/>
<rect x="36.5" y="999.5" width="87" height="21" rx="9.5" stroke="#FFC4C4"/>
<text fill="#E15C5C" style="white-space: pre" xml:space="preserve" font-family="Arimo" font-size="12" font-weight="bold" letter-spacing="0em"><tspan x="56" y="1014.16" font-family="Arimo">Pending</tspan></text>
<path d="M114 999.5H46C40.7533 999.5 36.5 1003.75 36.5 1009V1011C36.5 1016.25 40.7533 1020.5 46 1020.5H114C119.247 1020.5 123.5 1016.25 123.5 1011V1009C123.5 1003.75 119.247 999.5 114 999.5Z" stroke="#D7E6F7"/>
<text fill="#282828" style="white-space: pre" xml:space="preserve" font-family="Arimo" font-size="12" letter-spacing="0em"><tspan x="164" y="1014.02" font-family="Arimo">632</tspan></text>
<text fill="#282828" style="white-space: pre" xml:space="preserve" font-family="Arimo" font-size="14" letter-spacing="0em"><tspan x="244" y="1013.7" font-family="Arimo">Level 6</tspan></text>
<text fill="#282828" style="white-space: pre" xml:space="preserve" font-family="Arimo" font-size="14" letter-spacing="0em"><tspan x="329" y="1013.7" font-family="Arimo">Staff Pantry</tspan></text>
<path d="M503 999.5H455C449.753 999.5 445.5 1003.75 445.5 1009V1011C445.5 1016.25 449.753 1020.5 455 1020.5H503C508.247 1020.5 512.5 1016.25 512.5 1011V1009C512.5 1003.75 508.247 999.5 503 999.5Z" fill="#FFF3D8"/>
<path d="M503 999.5H455C449.753 999.5 445.5 1003.75 445.5 1009V1011C445.5 1016.25 449.753 1020.5 455 1020.5H503C508.247 1020.5 512.5 1016.25 512.5 1011V1009C512.5 1003.75 508.247 999.5 503 999.5Z" stroke="#FFE7A8"/>
<path d="M458.435 1009.88L453.302 1015.38C453.248 1015.44 453.176 1015.48 453.098 1015.49C453.019 1015.51 452.939 1015.5 452.868 1015.46C452.797 1015.42 452.74 1015.37 452.705 1015.29C452.67 1015.22 452.66 1015.14 452.675 1015.06L453.347 1011.7L450.706 1010.71C450.649 1010.69 450.598 1010.65 450.558 1010.61C450.519 1010.56 450.491 1010.51 450.477 1010.45C450.463 1010.39 450.465 1010.33 450.48 1010.27C450.496 1010.21 450.527 1010.16 450.568 1010.12L455.701 1004.62C455.755 1004.56 455.827 1004.52 455.905 1004.51C455.984 1004.49 456.065 1004.5 456.135 1004.54C456.206 1004.58 456.263 1004.63 456.298 1004.71C456.333 1004.78 456.344 1004.86 456.328 1004.94L455.655 1008.3L458.296 1009.29C458.352 1009.31 458.402 1009.35 458.442 1009.39C458.481 1009.44 458.509 1009.49 458.523 1009.55C458.536 1009.61 458.535 1009.67 458.52 1009.73C458.504 1009.79 458.474 1009.84 458.433 1009.88H458.435Z" fill="#C9A922"/>
<text fill="#B8843E" style="white-space: pre" xml:space="preserve" font-family="Arimo" font-size="12" font-weight="bold" letter-spacing="0em"><tspan x="463.835" y="1013.32" font-family="Arimo">Electric</tspan></text>
<text fill="#282828" style="white-space: pre" xml:space="preserve" font-family="Arimo" font-size="14" letter-spacing="0em"><tspan x="543" y="1005.7" font-family="Arimo">1,965.0 m³</tspan></text>
<text fill="#878682" style="white-space: pre" xml:space="preserve" font-family="Arimo" font-size="10" font-style="italic" letter-spacing="0em"><tspan x="543" y="1022.94" font-family="Arimo">17 Apr 2026, 1.07pm</tspan></text>
<text fill="#B8C2CC" style="white-space: pre" xml:space="preserve" font-family="Arimo" font-size="14" letter-spacing="0em"><tspan x="664" y="1013.7" font-family="Arimo">None</tspan></text>
<rect x="36.5" y="1106.5" width="87" height="21" rx="9.5" fill="#FFEBEC"/>
<rect x="36.5" y="1106.5" width="87" height="21" rx="9.5" stroke="#FFC4C4"/>
<text fill="#E15C5C" style="white-space: pre" xml:space="preserve" font-family="Arimo" font-size="12" font-weight="bold" letter-spacing="0em"><tspan x="56" y="1121.16" font-family="Arimo">Pending</tspan></text>
<path d="M114 1106.5H46C40.7533 1106.5 36.5 1110.75 36.5 1116V1118C36.5 1123.25 40.7533 1127.5 46 1127.5H114C119.247 1127.5 123.5 1123.25 123.5 1118V1116C123.5 1110.75 119.247 1106.5 114 1106.5Z" stroke="#D7E6F7"/>
<text fill="#282828" style="white-space: pre" xml:space="preserve" font-family="Arimo" font-size="12" letter-spacing="0em"><tspan x="164" y="1120.02" font-family="Arimo">628</tspan></text>
<text fill="#282828" style="white-space: pre" xml:space="preserve" font-family="Arimo" font-size="14" letter-spacing="0em"><tspan x="244" y="1120.7" font-family="Arimo">Roof Level</tspan></text>
<text fill="#282828" style="white-space: pre" xml:space="preserve" font-family="Arimo" font-size="14" letter-spacing="0em"><tspan x="329" y="1120.7" font-family="Arimo">Tank Room</tspan></text>
<path d="M503 1106.5H455C449.753 1106.5 445.5 1110.75 445.5 1116V1118C445.5 1123.25 449.753 1127.5 455 1127.5H503C508.247 1127.5 512.5 1123.25 512.5 1118V1116C512.5 1110.75 508.247 1106.5 503 1106.5Z" fill="#FFF3D8"/>
<path d="M503 1106.5H455C449.753 1106.5 445.5 1110.75 445.5 1116V1118C445.5 1123.25 449.753 1127.5 455 1127.5H503C508.247 1127.5 512.5 1123.25 512.5 1118V1116C512.5 1110.75 508.247 1106.5 503 1106.5Z" stroke="#FFE7A8"/>
<path d="M458.435 1116.88L453.302 1122.38C453.248 1122.44 453.176 1122.48 453.098 1122.49C453.019 1122.51 452.939 1122.5 452.868 1122.46C452.797 1122.42 452.74 1122.37 452.705 1122.29C452.67 1122.22 452.66 1122.14 452.675 1122.06L453.347 1118.7L450.706 1117.71C450.649 1117.69 450.598 1117.65 450.558 1117.61C450.519 1117.56 450.491 1117.51 450.477 1117.45C450.463 1117.39 450.465 1117.33 450.48 1117.27C450.496 1117.21 450.527 1117.16 450.568 1117.12L455.701 1111.62C455.755 1111.56 455.827 1111.52 455.905 1111.51C455.984 1111.49 456.065 1111.5 456.135 1111.54C456.206 1111.58 456.263 1111.63 456.298 1111.71C456.333 1111.78 456.344 1111.86 456.328 1111.94L455.655 1115.3L458.296 1116.29C458.352 1116.31 458.402 1116.35 458.442 1116.39C458.481 1116.44 458.509 1116.49 458.523 1116.55C458.536 1116.61 458.535 1116.67 458.52 1116.73C458.504 1116.79 458.474 1116.84 458.433 1116.88H458.435Z" fill="#C9A922"/>
<text fill="#B8843E" style="white-space: pre" xml:space="preserve" font-family="Arimo" font-size="12" font-weight="bold" letter-spacing="0em"><tspan x="463.835" y="1120.32" font-family="Arimo">Electric</tspan></text>
<text fill="#282828" style="white-space: pre" xml:space="preserve" font-family="Arimo" font-size="14" letter-spacing="0em"><tspan x="543" y="1110.7" font-family="Arimo">8,120.3 m³</tspan></text>
<text fill="#878682" style="white-space: pre" xml:space="preserve" font-family="Arimo" font-size="12" font-style="italic" letter-spacing="0em"><tspan x="543" y="1130.32" font-family="Arimo">4 Sep 2026, 8.56am</tspan></text>
<text fill="#B8C2CC" style="white-space: pre" xml:space="preserve" font-family="Arimo" font-size="14" letter-spacing="0em"><tspan x="664" y="1120.7" font-family="Arimo">None</tspan></text>
<rect x="36.5" y="789.5" width="87" height="21" rx="9.5" fill="#FFEBEC"/>
<rect x="36.5" y="789.5" width="87" height="21" rx="9.5" stroke="#FFC4C4"/>
<text fill="#E15C5C" style="white-space: pre" xml:space="preserve" font-family="Arimo" font-size="12" font-weight="bold" letter-spacing="0em"><tspan x="56" y="804.16" font-family="Arimo">Pending</tspan></text>
<path d="M114 789.5H46C40.7533 789.5 36.5 793.753 36.5 799V801C36.5 806.247 40.7533 810.5 46 810.5H114C119.247 810.5 123.5 806.247 123.5 801V799C123.5 793.753 119.247 789.5 114 789.5Z" stroke="#D7E6F7"/>
<text fill="#282828" style="white-space: pre" xml:space="preserve" font-family="Arimo" font-size="12" letter-spacing="0em"><tspan x="164" y="804.024" font-family="Arimo">626</tspan></text>
<text fill="#282828" style="white-space: pre" xml:space="preserve" font-family="Arimo" font-size="14" letter-spacing="0em"><tspan x="244" y="803.708" font-family="Arimo">Level 5</tspan></text>
<text fill="#282828" style="white-space: pre" xml:space="preserve" font-family="Arimo" font-size="14" letter-spacing="0em"><tspan x="329" y="803.708" font-family="Arimo">Cleaner Store</tspan></text>
<path d="M503 789.5H455C449.753 789.5 445.5 793.753 445.5 799V801C445.5 806.247 449.753 810.5 455 810.5H503C508.247 810.5 512.5 806.247 512.5 801V799C512.5 793.753 508.247 789.5 503 789.5Z" fill="#FFF3D8"/>
<path d="M503 789.5H455C449.753 789.5 445.5 793.753 445.5 799V801C445.5 806.247 449.753 810.5 455 810.5H503C508.247 810.5 512.5 806.247 512.5 801V799C512.5 793.753 508.247 789.5 503 789.5Z" stroke="#FFE7A8"/>
<path d="M458.435 799.885L453.302 805.384C453.248 805.442 453.176 805.481 453.098 805.495C453.019 805.508 452.939 805.496 452.868 805.46C452.797 805.424 452.74 805.365 452.705 805.294C452.67 805.222 452.66 805.141 452.675 805.063L453.347 801.703L450.706 800.711C450.649 800.69 450.598 800.655 450.558 800.609C450.519 800.564 450.491 800.509 450.477 800.45C450.463 800.391 450.465 800.33 450.48 800.271C450.496 800.213 450.527 800.159 450.568 800.115L455.701 794.616C455.755 794.558 455.827 794.519 455.905 794.505C455.984 794.492 456.065 794.504 456.135 794.54C456.206 794.576 456.263 794.635 456.298 794.706C456.333 794.778 456.344 794.859 456.328 794.937L455.655 798.301L458.296 799.291C458.352 799.313 458.402 799.348 458.442 799.393C458.481 799.438 458.509 799.493 458.523 799.551C458.536 799.61 458.535 799.671 458.52 799.729C458.504 799.787 458.474 799.841 458.433 799.885H458.435Z" fill="#C9A922"/>
<text fill="#B8843E" style="white-space: pre" xml:space="preserve" font-family="Arimo" font-size="12" font-weight="bold" letter-spacing="0em"><tspan x="463.835" y="803.32" font-family="Arimo">Electric</tspan></text>
<text fill="#282828" style="white-space: pre" xml:space="preserve" font-family="Arimo" font-size="14" letter-spacing="0em"><tspan x="543" y="795.708" font-family="Arimo">1,284.2 m³</tspan></text>
<text fill="#878682" style="white-space: pre" xml:space="preserve" font-family="Arimo" font-size="10" font-style="italic" letter-spacing="0em"><tspan x="543" y="812.934" font-family="Arimo">30 May 2026, 9.02am</tspan></text>
<text fill="#B8C2CC" style="white-space: pre" xml:space="preserve" font-family="Arimo" font-size="14" letter-spacing="0em"><tspan x="664" y="803.708" font-family="Arimo">None</tspan></text>
<path d="M114 842.5H46C40.7533 842.5 36.5 846.753 36.5 852V854C36.5 859.247 40.7533 863.5 46 863.5H114C119.247 863.5 123.5 859.247 123.5 854V852C123.5 846.753 119.247 842.5 114 842.5Z" fill="#EBF9E0"/>
<path d="M114 842.5H46C40.7533 842.5 36.5 846.753 36.5 852V854C36.5 859.247 40.7533 863.5 46 863.5H114C119.247 863.5 123.5 859.247 123.5 854V852C123.5 846.753 119.247 842.5 114 842.5Z" stroke="#BEE27B"/>
<text fill="#1E5D18" style="white-space: pre" xml:space="preserve" font-family="Arimo" font-size="12" font-weight="bold" letter-spacing="0em"><tspan x="50.5" y="856.32" font-family="Arimo">Submitted</tspan></text>
<text fill="#282828" style="white-space: pre" xml:space="preserve" font-family="Arimo" font-size="12" letter-spacing="0em"><tspan x="164" y="856.024" font-family="Arimo">630</tspan></text>
<text fill="#282828" style="white-space: pre" xml:space="preserve" font-family="Arimo" font-size="14" letter-spacing="0em"><tspan x="244" y="856.708" font-family="Arimo">Ground Floor</tspan></text>
<text fill="#282828" style="white-space: pre" xml:space="preserve" font-family="Arimo" font-size="14" letter-spacing="0em"><tspan x="329" y="856.708" font-family="Arimo">Canteen</tspan></text>
<path d="M503 842.5H455C449.753 842.5 445.5 846.753 445.5 852V854C445.5 859.247 449.753 863.5 455 863.5H503C508.247 863.5 512.5 859.247 512.5 854V852C512.5 846.753 508.247 842.5 503 842.5Z" fill="#EAF3FB"/>
<path d="M503 842.5H455C449.753 842.5 445.5 846.753 445.5 852V854C445.5 859.247 449.753 863.5 455 863.5H503C508.247 863.5 512.5 859.247 512.5 854V852C512.5 846.753 508.247 842.5 503 842.5Z" stroke="#ADCEFF"/>
<path d="M462.259 849.452C461.652 848.751 460.97 848.121 460.223 847.571C460.157 847.525 460.079 847.5 459.998 847.5C459.917 847.5 459.839 847.525 459.773 847.571C459.028 848.121 458.346 848.752 457.741 849.452C456.391 851.002 455.678 852.637 455.678 854.179C455.678 855.325 456.134 856.424 456.944 857.234C457.755 858.045 458.854 858.5 460 858.5C461.146 858.5 462.245 858.045 463.056 857.234C463.866 856.424 464.321 855.325 464.321 854.179C464.321 852.637 463.609 851.002 462.259 849.452ZM462.743 854.637C462.641 855.206 462.367 855.73 461.958 856.139C461.549 856.548 461.025 856.821 460.456 856.923C460.435 856.927 460.414 856.928 460.393 856.929C460.294 856.929 460.199 856.891 460.127 856.825C460.054 856.758 460.01 856.666 460.001 856.568C459.993 856.47 460.022 856.372 460.083 856.295C460.143 856.217 460.231 856.165 460.328 856.148C461.142 856.011 461.832 855.321 461.97 854.506C461.988 854.403 462.045 854.311 462.13 854.251C462.215 854.191 462.321 854.166 462.423 854.184C462.526 854.201 462.618 854.259 462.678 854.344C462.738 854.429 462.763 854.534 462.745 854.637H462.743Z" fill="#0757B8"/>
<text fill="#0757B8" style="white-space: pre" xml:space="preserve" font-family="Arimo" font-size="12" font-weight="bold" letter-spacing="0em"><tspan x="469.322" y="856.32" font-family="Arimo">Water</tspan></text>
<text fill="#282828" style="white-space: pre" xml:space="preserve" font-family="Arimo" font-size="14" letter-spacing="0em"><tspan x="543" y="848.708" font-family="Arimo">5,240.9 m³</tspan></text>
<text fill="#878682" style="white-space: pre" xml:space="preserve" font-family="Arimo" font-size="10" font-style="italic" letter-spacing="0em"><tspan x="543" y="865.934" font-family="Arimo">6 Jun 2026, 2.55pm</tspan></text>
<text fill="#282828" style="white-space: pre" xml:space="preserve" font-family="Arimo" font-size="14" letter-spacing="0em"><tspan x="664" y="846.708" font-family="Arimo">None</tspan></text>
<text fill="#878682" style="white-space: pre" xml:space="preserve" font-family="Arimo" font-size="10" font-style="italic" letter-spacing="0em"><tspan x="664" y="866.934" font-family="Arimo">9 Apr 2026, 3.21pm</tspan></text>
<path d="M114 1052.5H46C40.7533 1052.5 36.5 1056.75 36.5 1062V1064C36.5 1069.25 40.7533 1073.5 46 1073.5H114C119.247 1073.5 123.5 1069.25 123.5 1064V1062C123.5 1056.75 119.247 1052.5 114 1052.5Z" fill="#EBF9E0"/>
<path d="M114 1052.5H46C40.7533 1052.5 36.5 1056.75 36.5 1062V1064C36.5 1069.25 40.7533 1073.5 46 1073.5H114C119.247 1073.5 123.5 1069.25 123.5 1064V1062C123.5 1056.75 119.247 1052.5 114 1052.5Z" stroke="#BEE27B"/>
<text fill="#1E5D18" style="white-space: pre" xml:space="preserve" font-family="Arimo" font-size="12" font-weight="bold" letter-spacing="0em"><tspan x="50.5" y="1066.32" font-family="Arimo">Submitted</tspan></text>
<text fill="#282828" style="white-space: pre" xml:space="preserve" font-family="Arimo" font-size="12" letter-spacing="0em"><tspan x="164" y="1066.02" font-family="Arimo">606</tspan></text>
<text fill="#282828" style="white-space: pre" xml:space="preserve" font-family="Arimo" font-size="14" letter-spacing="0em"><tspan x="244" y="1066.7" font-family="Arimo">Level 1</tspan></text>
<text fill="#282828" style="white-space: pre" xml:space="preserve" font-family="Arimo" font-size="14" letter-spacing="0em"><tspan x="329" y="1066.7" font-family="Arimo">Security Post</tspan></text>
<path d="M503 1052.5H455C449.753 1052.5 445.5 1056.75 445.5 1062V1064C445.5 1069.25 449.753 1073.5 455 1073.5H503C508.247 1073.5 512.5 1069.25 512.5 1064V1062C512.5 1056.75 508.247 1052.5 503 1052.5Z" fill="#EAF3FB"/>
<path d="M503 1052.5H455C449.753 1052.5 445.5 1056.75 445.5 1062V1064C445.5 1069.25 449.753 1073.5 455 1073.5H503C508.247 1073.5 512.5 1069.25 512.5 1064V1062C512.5 1056.75 508.247 1052.5 503 1052.5Z" stroke="#ADCEFF"/>
<path d="M462.259 1059.45C461.652 1058.75 460.97 1058.12 460.223 1057.57C460.157 1057.52 460.079 1057.5 459.998 1057.5C459.917 1057.5 459.839 1057.52 459.773 1057.57C459.028 1058.12 458.346 1058.75 457.741 1059.45C456.391 1061 455.678 1062.64 455.678 1064.18C455.678 1065.32 456.134 1066.42 456.944 1067.23C457.755 1068.04 458.854 1068.5 460 1068.5C461.146 1068.5 462.245 1068.04 463.056 1067.23C463.866 1066.42 464.321 1065.32 464.321 1064.18C464.321 1062.64 463.609 1061 462.259 1059.45ZM462.743 1064.64C462.641 1065.21 462.367 1065.73 461.958 1066.14C461.549 1066.55 461.025 1066.82 460.456 1066.92C460.435 1066.93 460.414 1066.93 460.393 1066.93C460.294 1066.93 460.199 1066.89 460.127 1066.82C460.054 1066.76 460.01 1066.67 460.001 1066.57C459.993 1066.47 460.022 1066.37 460.083 1066.29C460.143 1066.22 460.231 1066.16 460.328 1066.15C461.142 1066.01 461.832 1065.32 461.97 1064.51C461.988 1064.4 462.045 1064.31 462.13 1064.25C462.215 1064.19 462.321 1064.17 462.423 1064.18C462.526 1064.2 462.618 1064.26 462.678 1064.34C462.738 1064.43 462.763 1064.53 462.745 1064.64H462.743Z" fill="#0757B8"/>
<text fill="#0757B8" style="white-space: pre" xml:space="preserve" font-family="Arimo" font-size="12" font-weight="bold" letter-spacing="0em"><tspan x="469.322" y="1066.32" font-family="Arimo">Water</tspan></text>
<text fill="#282828" style="white-space: pre" xml:space="preserve" font-family="Arimo" font-size="14" letter-spacing="0em"><tspan x="543" y="1058.7" font-family="Arimo">7,430 kWh</tspan></text>
<text fill="#878682" style="white-space: pre" xml:space="preserve" font-family="Arimo" font-size="10" font-style="italic" letter-spacing="0em"><tspan x="543" y="1075.94" font-family="Arimo">22 Jun 2026, 11.11am</tspan></text>
<text fill="#282828" style="white-space: pre" xml:space="preserve" font-family="Arimo" font-size="14" letter-spacing="0em"><tspan x="664" y="1056.7" font-family="Arimo">7,518 kWh</tspan></text>
<text fill="#878682" style="white-space: pre" xml:space="preserve" font-family="Arimo" font-size="10" font-style="italic" letter-spacing="0em"><tspan x="664" y="1076.94" font-family="Arimo">1 Jul 2026, 5.42pm</tspan></text>
<path d="M813 369C813 367.343 811.657 366 810 366C808.343 366 807 367.343 807 369V532C807 533.657 808.343 535 810 535C811.657 535 813 533.657 813 532V369Z" fill="#D3DAE2"/>
<path d="M163.983 521.57V521.239C163.983 519.269 162.373 517.66 160.383 517.66C159.933 517.66 159.503 517.738 159.113 517.894C158.773 516.265 157.323 515.036 155.593 515.036C155.123 515.036 154.673 515.124 154.263 515.29C153.823 513.788 152.383 512.646 150.723 512.646C150.273 512.646 149.843 512.734 149.443 512.89V508.579C149.443 506.609 147.833 505 145.843 505C143.853 505 142.253 506.609 142.253 508.579V519.122C141.623 518.323 140.863 517.62 139.993 517.269C139.013 516.87 137.983 516.918 137.013 517.406C135.223 518.313 134.493 520.488 135.373 522.273L139.843 531.275C139.973 531.519 142.993 537.322 148.473 537.322H154.863C159.903 537.322 164.003 533.216 164.003 528.164V521.561L163.983 521.57Z" fill="black"/>
<path d="M154.853 534.932H148.463C144.513 534.932 142.053 530.358 141.973 530.192L137.523 521.21C137.213 520.585 137.473 519.854 138.103 519.532C138.453 519.356 138.753 519.337 139.083 519.473C140.403 520.01 141.703 522.614 142.213 524.135L142.603 525.286L144.663 524.565V508.579C144.663 507.926 145.203 507.389 145.863 507.389C146.523 507.389 147.063 507.926 147.063 508.579V522.351H149.483V516.304C149.483 515.641 150.083 515.026 150.743 515.026C151.403 515.026 152.023 515.582 152.023 516.216V522.741H154.423V518.605C154.423 517.942 154.963 517.416 155.623 517.416C156.283 517.416 156.823 517.952 156.823 518.605V523.862H159.223V521.239C159.223 520.576 159.763 520.049 160.423 520.049C161.083 520.049 161.623 520.585 161.623 521.239V522.946V528.173C161.623 531.899 158.603 534.942 154.883 534.942L154.853 534.932Z" fill="white"/>
<path d="M163.983 413.57V413.239C163.983 411.269 162.373 409.66 160.383 409.66C159.933 409.66 159.503 409.738 159.113 409.894C158.773 408.265 157.323 407.036 155.593 407.036C155.123 407.036 154.673 407.124 154.263 407.29C153.823 405.788 152.383 404.646 150.723 404.646C150.273 404.646 149.843 404.734 149.443 404.89V400.579C149.443 398.609 147.833 397 145.843 397C143.853 397 142.253 398.609 142.253 400.579V411.122C141.623 410.323 140.863 409.62 139.993 409.269C139.013 408.87 137.983 408.918 137.013 409.406C135.223 410.313 134.493 412.488 135.373 414.273L139.843 423.275C139.973 423.519 142.993 429.322 148.473 429.322H154.863C159.903 429.322 164.003 425.216 164.003 420.164V413.561L163.983 413.57Z" fill="black"/>
<path d="M154.853 426.932H148.463C144.513 426.932 142.053 422.358 141.973 422.192L137.523 413.21C137.213 412.585 137.473 411.854 138.103 411.532C138.453 411.356 138.753 411.337 139.083 411.473C140.403 412.01 141.703 414.614 142.213 416.135L142.603 417.286L144.663 416.565V400.579C144.663 399.926 145.203 399.389 145.863 399.389C146.523 399.389 147.063 399.926 147.063 400.579V414.351H149.483V408.304C149.483 407.641 150.083 407.026 150.743 407.026C151.403 407.026 152.023 407.582 152.023 408.216V414.741H154.423V410.605C154.423 409.942 154.963 409.416 155.623 409.416C156.283 409.416 156.823 409.952 156.823 410.605V415.862H159.223V413.239C159.223 412.576 159.763 412.049 160.423 412.049C161.083 412.049 161.623 412.585 161.623 413.239V414.946V420.173C161.623 423.899 158.603 426.942 154.883 426.942L154.853 426.932Z" fill="white"/>
<path d="M792.516 375.374H778.484C774.557 375.374 771.374 378.557 771.374 382.484V396.517C771.374 400.443 774.557 403.626 778.484 403.626H792.516C796.442 403.626 799.626 400.443 799.626 396.517V382.484C799.626 378.557 796.442 375.374 792.516 375.374Z" fill="#F3F6F9"/>
<path d="M792.516 375.374H778.484C774.557 375.374 771.374 378.557 771.374 382.484V396.517C771.374 400.443 774.557 403.626 778.484 403.626H792.516C796.442 403.626 799.626 400.443 799.626 396.517V382.484C799.626 378.557 796.442 375.374 792.516 375.374Z" stroke="#D9E1EA" stroke-width="0.748391"/>
<path d="M792.187 385.948L789.052 382.813C788.948 382.709 788.824 382.626 788.688 382.569C788.552 382.513 788.406 382.484 788.258 382.484C788.111 382.484 787.965 382.513 787.829 382.569C787.693 382.626 787.569 382.709 787.465 382.813L778.813 391.465C778.708 391.569 778.625 391.693 778.569 391.829C778.512 391.965 778.483 392.111 778.484 392.259V395.394C778.484 395.692 778.602 395.977 778.813 396.188C779.023 396.398 779.309 396.517 779.606 396.517H782.742C782.889 396.517 783.036 396.488 783.172 396.432C783.308 396.375 783.432 396.292 783.536 396.188L792.187 387.536C792.291 387.432 792.374 387.308 792.431 387.172C792.487 387.036 792.516 386.89 792.516 386.742C792.516 386.595 792.487 386.449 792.431 386.313C792.374 386.176 792.291 386.053 792.187 385.948ZM782.742 395.394H779.606V392.259L785.781 386.084L788.916 389.22L782.742 395.394ZM789.71 388.426L786.574 385.291L788.258 383.607L791.394 386.742L789.71 388.426Z" fill="#878682"/>
<path d="M792.516 682.374H778.484C774.557 682.374 771.374 685.557 771.374 689.484V703.517C771.374 707.443 774.557 710.626 778.484 710.626H792.516C796.442 710.626 799.626 707.443 799.626 703.517V689.484C799.626 685.557 796.442 682.374 792.516 682.374Z" fill="#F3F6F9"/>
<path d="M792.516 682.374H778.484C774.557 682.374 771.374 685.557 771.374 689.484V703.517C771.374 707.443 774.557 710.626 778.484 710.626H792.516C796.442 710.626 799.626 707.443 799.626 703.517V689.484C799.626 685.557 796.442 682.374 792.516 682.374Z" stroke="#D9E1EA" stroke-width="0.748391"/>
<path d="M792.187 692.948L789.052 689.813C788.948 689.709 788.824 689.626 788.688 689.569C788.552 689.513 788.406 689.484 788.258 689.484C788.111 689.484 787.965 689.513 787.829 689.569C787.693 689.626 787.569 689.709 787.465 689.813L778.813 698.465C778.708 698.569 778.625 698.693 778.569 698.829C778.512 698.965 778.483 699.111 778.484 699.259V702.394C778.484 702.692 778.602 702.977 778.813 703.188C779.023 703.398 779.309 703.517 779.606 703.517H782.742C782.889 703.517 783.036 703.488 783.172 703.432C783.308 703.375 783.432 703.292 783.536 703.188L792.187 694.536C792.291 694.432 792.374 694.308 792.431 694.172C792.487 694.036 792.516 693.89 792.516 693.742C792.516 693.595 792.487 693.449 792.431 693.313C792.374 693.176 792.291 693.053 792.187 692.948ZM782.742 702.394H779.606V699.259L785.781 693.084L788.916 696.22L782.742 702.394ZM789.71 695.426L786.574 692.291L788.258 690.607L791.394 693.742L789.71 695.426Z" fill="#878682"/>
</g>
<path d="M806 326.5H27C21.7533 326.5 17.5 330.753 17.5 336V1118C17.5 1123.25 21.7533 1127.5 27 1127.5H806C811.247 1127.5 815.5 1123.25 815.5 1118V336C815.5 330.753 811.247 326.5 806 326.5Z" stroke="#D7E6F7"/>
<path d="M96.9001 51.3502L94.4001 44.0502H83.6001L81.1001 51.3502H75.1001L85.5001 22.9502H92.5001L102.8 51.3502H96.9001ZM89.0001 27.2502V27.6502C88.7001 28.1502 88.6001 28.6502 88.4001 29.3502C88.2001 29.9502 87.1001 33.3502 84.9001 39.5502H93.1001L90.3001 31.3502L89.4001 28.6502L89.0001 27.2502Z" fill="#2D343F"/>
<path d="M115.7 51.7501C112.4 51.7501 109.9 50.7501 108.1 48.8501C106.3 46.9501 105.5 44.0501 105.5 40.3501C105.5 36.6501 106.4 33.9501 108.2 32.0501C110 30.1501 112.5 29.1501 115.8 29.1501C119.1 29.1501 121.3 30.1501 123 32.2501C124.7 34.3501 125.5 37.3501 125.5 41.3501V41.5501H111.5C111.5 43.6501 111.9 45.2501 112.7 46.3501C113.5 47.4501 114.6 47.9501 116.1 47.9501C117.6 47.9501 119.4 47.0501 119.9 45.3501L125.2 45.8501C123.7 49.8501 120.5 51.7501 115.8 51.7501H115.7ZM115.7 32.6501C114.4 32.6501 113.3 33.1501 112.6 34.0501C111.9 34.9501 111.5 36.2501 111.5 37.9501H120C120 36.1501 119.5 34.8501 118.7 33.9501C118 33.0501 117 32.6501 115.7 32.6501Z" fill="#2D343F"/>
<path d="M129.8 51.3501V29.5501H135.2C135.2 29.7501 135.2 30.5501 135.4 31.7501C135.6 32.9501 135.4 33.7501 135.4 34.2501C136 32.7501 136.4 31.6501 136.9 31.0501C137.3 30.4501 137.8 29.9501 138.4 29.6501C139 29.3501 139.7 29.1501 140.6 29.1501C141.5 29.1501 141.9 29.1501 142.4 29.4501V34.1501C141.5 33.9501 140.7 33.8501 140 33.8501C138.6 33.8501 137.5 34.4501 136.7 35.5501C135.9 36.6501 135.5 38.3501 135.5 40.6501V51.3501H129.8Z" fill="#2D343F"/>
<path d="M166.6 40.35C166.6 43.85 165.6 46.65 163.7 48.65C161.7 50.65 159 51.6501 155.5 51.6501C152 51.6501 149.4 50.65 147.5 48.65C145.6 46.65 144.6 43.85 144.6 40.35C144.6 36.85 145.6 34.05 147.5 32.05C149.4 30.05 152.1 29.05 155.6 29.05C159.1 29.05 161.9 30.05 163.8 31.95C165.7 33.85 166.6 36.65 166.6 40.35ZM160.7 40.35C160.7 37.75 160.3 35.85 159.4 34.65C158.6 33.45 157.3 32.85 155.7 32.85C152.3 32.85 150.5 35.35 150.5 40.25C150.5 45.15 150.9 44.55 151.8 45.85C152.6 47.15 153.9 47.75 155.4 47.75C158.9 47.75 160.6 45.25 160.6 40.25L160.7 40.35Z" fill="#2D343F"/>
<path d="M177 27.4501V36.2501H191.6V40.8501H177V51.2501H171V22.8501H192V27.4501H177Z" fill="#2D343F"/>
<path d="M196.4 51.3501V21.3501H202.1V51.3501H196.4Z" fill="#2D343F"/>
<path d="M228.6 40.35C228.6 43.85 227.6 46.65 225.7 48.65C223.7 50.65 221 51.6501 217.5 51.6501C214 51.6501 211.4 50.65 209.5 48.65C207.6 46.65 206.6 43.85 206.6 40.35C206.6 36.85 207.6 34.05 209.5 32.05C211.4 30.05 214.1 29.05 217.6 29.05C221.1 29.05 223.9 30.05 225.8 31.95C227.7 33.85 228.6 36.65 228.6 40.35ZM222.7 40.35C222.7 37.75 222.3 35.85 221.4 34.65C220.6 33.45 219.3 32.85 217.7 32.85C214.3 32.85 212.5 35.35 212.5 40.25C212.5 45.15 212.9 44.55 213.8 45.85C214.6 47.15 215.9 47.75 217.4 47.75C220.9 47.75 222.6 45.25 222.6 40.25L222.7 40.35Z" fill="#2D343F"/>
<path d="M256.7 51.35H250.7L247.2 38.05C247 37.45 246.7 35.95 246.3 33.55L245.3 38.05L241.8 51.35H235.8L230.1 29.55H235.4L239 46.25L239.3 44.75L239.8 42.35L243.2 29.55H249.3L252.7 42.35C252.9 43.05 253.2 44.35 253.5 46.25L254.1 43.55L257.2 29.55H262.4L256.7 51.35Z" fill="#2D343F"/>
<path d="M25.9001 37.0501C26.2001 34.7501 27.1001 32.5501 28.5001 30.7501L22.6001 24.8501C19.8001 28.1501 17.9001 32.4501 17.6001 37.0501H26.0001H25.9001Z" fill="#0659AE"/>
<path d="M31.1002 28.25C32.9002 26.85 35.0002 25.95 37.4002 25.65V17.25C32.8002 17.65 28.6002 19.45 25.2002 22.25L31.1002 28.15V28.25Z" fill="#0659AE"/>
<path d="M41 17.25V25.65C43.3 25.95 45.5 26.85 47.3 28.25L53.2 22.35C49.9 19.55 45.6 17.65 41 17.35V17.25Z" fill="#0659AE"/>
<path d="M28.5 47.05C27.1 45.25 26.2 43.15 25.9 40.75H17.5C17.9 45.35 19.7 49.55 22.5 52.95L28.4 47.05H28.5Z" fill="#0659AE"/>
<path d="M37.4002 52.2499C35.1002 51.9499 32.9002 51.0499 31.1002 49.6499L25.2002 55.5499C28.5002 58.3499 32.8002 60.2499 37.4002 60.5499V52.1499V52.2499Z" fill="#0659AE"/>
<path d="M47.3 49.6499C45.5 51.0499 43.4 51.9499 41 52.2499V60.6499C45.6 60.2499 49.8 58.4499 53.2 55.6499L47.3 49.7499V49.6499Z" fill="#0659AE"/>
<path d="M49.8999 30.85C51.2999 32.65 52.1999 34.75 52.4999 37.15H60.8999C60.4999 32.55 58.6999 28.35 55.8999 24.95L49.9999 30.85H49.8999Z" fill="#0659AE"/>
<path d="M52.4999 40.75C52.1999 43.05 51.2999 45.25 49.8999 47.05L55.7999 52.95C58.5999 49.65 60.4999 45.35 60.7999 40.75H52.3999H52.4999Z" fill="#0659AE"/>
<line x1="276" y1="24.75" x2="276" y2="54.75" stroke="#DDDDDD"/>
<path d="M329.647 33.3668C328.119 31.8356 326.304 30.622 324.305 29.7959C322.306 28.9699 320.163 28.5477 318 28.5538H317.941C308.876 28.5847 301.5 36.0672 301.5 45.2202V48.5895C301.5 49.2146 301.748 49.8142 302.19 50.2562C302.632 50.6982 303.232 50.9466 303.857 50.9466H332.143C332.768 50.9466 333.367 50.6982 333.81 50.2562C334.252 49.8142 334.5 49.2146 334.5 48.5895V45.0537C334.506 42.8813 334.08 40.7294 333.247 38.723C332.414 36.7167 331.19 34.8959 329.647 33.3668ZM332.143 48.5895H316.779L324.846 37.4962C325.03 37.2434 325.106 36.9278 325.057 36.6189C325.009 36.3101 324.839 36.0331 324.587 35.8491C324.334 35.6651 324.018 35.589 323.709 35.6376C323.401 35.6863 323.124 35.8556 322.94 36.1084L313.863 48.5895H303.857V45.2202C303.857 44.7665 303.879 44.3186 303.92 43.8752H307.393C307.705 43.8752 308.005 43.751 308.226 43.53C308.447 43.309 308.571 43.0092 308.571 42.6966C308.571 42.384 308.447 42.0843 308.226 41.8632C308.005 41.6422 307.705 41.518 307.393 41.518H304.339C305.859 35.7931 310.821 31.4648 316.821 30.961V34.4466C316.821 34.7592 316.946 35.059 317.167 35.28C317.388 35.501 317.687 35.6252 318 35.6252C318.313 35.6252 318.612 35.501 318.833 35.28C319.054 35.059 319.179 34.7592 319.179 34.4466V30.9595C322.102 31.2056 324.878 32.3536 327.121 34.245C329.364 36.1364 330.964 38.6778 331.701 41.518H328.607C328.295 41.518 327.995 41.6422 327.774 41.8632C327.553 42.0843 327.429 42.384 327.429 42.6966C327.429 43.0092 327.553 43.309 327.774 43.53C327.995 43.751 328.295 43.8752 328.607 43.8752H332.094C332.125 44.2656 332.143 44.6575 332.143 45.0537V48.5895Z" fill="#303976"/>
<text fill="#303976" style="white-space: pre" xml:space="preserve" font-family="Arimo" font-size="24" font-weight="bold" letter-spacing="0em"><tspan x="346.5" y="48.0703" font-family="Arimo">Meters Management</tspan></text>
<circle cx="745.5" cy="39.75" r="20" fill="#D9D9D9"/>
<text fill="#282828" style="white-space: pre" xml:space="preserve" font-family="Arimo" font-size="14" font-weight="bold" letter-spacing="0em"><tspan x="786.5" y="44.6035" font-family="Arimo">Karen</tspan></text>
</g>
<defs>
<clipPath id="clip0_355_1295">
<rect width="834" height="1194" fill="white"/>
</clipPath>
</defs>
</svg>